<svg width="18" height="17" viewBox="0 0 18 17" fill="none" xmlns="http://www.w3.org/2000/svg"><path d="M12.3749 6.26417C12.3749 7.83029 11.6869 9.24964 10.5682 10.2595 9.52819 11.1983 8.11985 11.7783 6.56247 11.7783 3.31907 11.7783.75 9.27707.75 6.26417.75 3.25128 3.31907.75 6.56247.75 9.80587.75 12.3749 3.25128 12.3749 6.26417z" fill="#2931ff" stroke="#2931ff" stroke-width="1.5"/><path d="M16.9999 10.4403C16.9999 13.3043 14.5539 15.7044 11.4375 15.7044 8.32105 15.7044 5.875 13.3043 5.875 10.4403 5.875 7.57627 8.32105 5.17609 11.4375 5.17609 14.5539 5.17609 16.9999 7.57627 16.9999 10.4403z" stroke="#2931ff" stroke-width="2"/></svg>