<svg width="25" height="26" viewBox="0 0 25 26" fill="none" xmlns="http://www.w3.org/2000/svg"><circle cx="12.5" cy="13.0663" r="12.5" fill="#f88e24"/><path d="M10.2031 8.42241C10.2031 7.81043 10.4277 7.2896 10.877 6.85991 11.3327 6.43022 11.9056 6.21538 12.5957 6.21538 13.2858 6.21538 13.8587 6.43022 14.3145 6.85991 14.7702 7.2896 14.998 7.81043 14.998 8.42241L14.5977 13.8228C14.5521 14.4738 14.3568 14.9686 14.0117 15.3072 13.6667 15.6457 13.1947 15.815 12.5957 15.815 11.9967 15.815 11.5247 15.6457 11.1797 15.3072 10.8411 14.9686 10.6491 14.4738 10.6035 13.8228L10.2031 8.42241zM10.9258 20.229C10.5091 19.8319 10.3008 19.3274 10.3008 18.7154 10.3008 18.1034 10.5091 17.6021 10.9258 17.2115 11.349 16.8143 11.9056 16.6158 12.5957 16.6158 13.2858 16.6158 13.8424 16.8143 14.2656 17.2115 14.6888 17.6021 14.9004 18.1034 14.9004 18.7154 14.9004 19.3274 14.6888 19.8319 14.2656 20.229 13.8424 20.6197 13.2858 20.815 12.5957 20.815 11.9056 20.815 11.349 20.6197 10.9258 20.229z" fill="#fff"/></svg>