<svg width="5" height="14" viewBox="0 0 5 14" fill="none" xmlns="http://www.w3.org/2000/svg"><path d="M.632812 2.59033C.632812 2.03955.834961 1.5708 1.23926 1.18408 1.64941.797363 2.16504.604004 2.78613.604004 3.40723.604004 3.92285.797363 4.33301 1.18408 4.74316 1.5708 4.94824 2.03955 4.94824 2.59033L4.58789 7.45068C4.54688 8.03662 4.37109 8.48193 4.06055 8.78662 3.75 9.09131 3.3252 9.24365 2.78613 9.24365 2.24707 9.24365 1.82227 9.09131 1.51172 8.78662 1.20703 8.48193 1.03418 8.03662.993164 7.45068L.632812 2.59033zM1.2832 13.2163C.908203 12.8589.720703 12.4048.720703 11.854.720703 11.3032.908203 10.8521 1.2832 10.5005 1.66406 10.1431 2.16504 9.96436 2.78613 9.96436 3.40723 9.96436 3.9082 10.1431 4.28906 10.5005 4.66992 10.8521 4.86035 11.3032 4.86035 11.854 4.86035 12.4048 4.66992 12.8589 4.28906 13.2163 3.9082 13.5679 3.40723 13.7437 2.78613 13.7437 2.16504 13.7437 1.66406 13.5679 1.2832 13.2163z" fill="#f88e24"/></svg>