<svg width="23" height="21" viewBox="0 0 23 21" fill="#84859e" stroke="#84859e" xmlns="http://www.w3.org/2000/svg"><path d="M5.21671 7.12282 5.21674 7.23625C5.21475 7.29105 5.21336 7.346 5.21257 7.40111V7.21417M5.21671 7.12282C5.41737 3.2265 8.63909.130742 12.5851.130742 16.6605.130742 19.9633 3.43371 19.9633 7.50874V10.9273C20.5736 10.9304 21.1259 11.4294 21.5257 12.0784 21.9267 12.7295 22.1753 13.5334 22.1753 14.145 22.1753 15.3686 21.1803 16.3619 19.9547 16.3619H16.4094C16.3932 17.2658 15.9 18.2022 15.1857 18.9166 14.4592 19.6431 13.503 20.1407 12.5851 20.1407 11.6671 20.1407 10.711 19.6431 9.98448 18.9166 9.27009 18.2022 8.77697 17.2658 8.76072 16.3619H5.21545C3.98911 16.3619 2.99482 15.3699 2.99482 14.145 2.99482 13.5336 3.24298 12.7297 3.64386 12.0787 4.04349 11.4296 4.59605 10.9307 5.20757 10.928L5.2068 7.50874C5.2068 7.41008 5.20873 7.31188 5.21257 7.21417M5.21671 7.12282 5.21257-11.3273V7.21417M5.21671 7.12282C5.21515 7.15322 5.21376 7.18367 5.21257 7.21417M18.4787 7.50874V10.9323H10.4765L18.4787 10.9366C18.481 11.7539 19.1414 12.4126 19.9576 12.4126 20.0563 12.4126 20.1519 12.4938 20.24 12.6248 20.3279 12.7555 20.4073 12.9341 20.4741 13.1258 20.6078 13.5091 20.6907 13.9428 20.6907 14.145 20.6907 14.548 20.3609 14.8773 19.9547 14.8773H5.21545C4.80829 14.8773 4.47947 14.5492 4.47947 14.145 4.47947 13.9426 4.56206 13.5089 4.69561 13.1256 4.76237 12.934 4.84174 12.7554 4.92967 12.6248 5.01785 12.4938 5.11355 12.4126 5.21257 12.4126 6.02853 12.4126 6.69145 11.7493 6.69145 10.9323V7.50874C6.69145 4.25294 9.32954 1.6154 12.5851 1.6154 15.8405 1.6154 18.4787 4.25365 18.4787 7.50874zM10.2459 16.3619h4.6784C14.9052 16.8582 14.5807 17.422 14.1359 17.8668 13.6773 18.3254 13.0922 18.6561 12.5851 18.6561 12.078 18.6561 11.4929 18.3254 11.0343 17.8668 10.5895 17.422 10.265 16.8582 10.2459 16.3619z" fill="#84859e" stroke="#84859e" stroke-width=".01"/></svg>