<svg xmlns="http://www.w3.org/2000/svg" fill="none" viewBox="0 0 23 22"><path fill="#84859E" stroke="#84859E" stroke-width=".01" d="M5.217 7.987v.114l-.004.164v-.187m.004-.09A7.377 7.377 0 0 1 12.585.994a7.378 7.378 0 0 1 7.378 7.378v3.419c.61.003 1.163.502 1.563 1.15.4.652.65 1.456.65 2.067a2.22 2.22 0 0 1-2.221 2.217H16.41c-.017.904-.51 1.84-1.224 2.555-.727.726-1.683 1.224-2.6 1.224-.919 0-1.875-.498-2.601-1.224-.715-.715-1.208-1.651-1.224-2.555H5.216a2.218 2.218 0 0 1-2.221-2.217c0-.611.248-1.415.649-2.066.4-.65.952-1.148 1.564-1.15l-.001-3.42c0-.099.002-.197.006-.295m.004-.09l-.004-18.451V8.078m.004-.09l-.004.09m13.266.295v3.424h-8.002l8.002.004a1.478 1.478 0 0 0 1.479 1.476c.099 0 .194.081.282.212.088.13.168.31.234.501.134.383.217.817.217 1.02 0 .402-.33.732-.736.732H5.215a.734.734 0 0 1-.735-.733c0-.202.082-.636.216-1.02.067-.19.146-.37.234-.5.088-.131.184-.212.283-.212a1.48 1.48 0 0 0 1.479-1.48V8.373a5.892 5.892 0 0 1 5.893-5.893 5.893 5.893 0 0 1 5.894 5.893zm-8.233 8.853h4.678c-.019.496-.343 1.06-.788 1.505-.459.459-1.044.79-1.55.79-.508 0-1.093-.331-1.552-.79-.444-.445-.769-1.009-.788-1.505z"/></svg>