<svg width="18" height="15" viewBox="0 0 18 15" fill="none" xmlns="http://www.w3.org/2000/svg"><path d="M16.0037 6.06562C16.6629 7.0302 16.6629 8.33811 16.0037 9.30269 14.3515 11.7201 12.4745 13.9041 9 13.9041 5.54547 13.9041 3.66988 11.745 2.02454 9.34391 1.35714 8.36993 1.37259 7.0374 2.05425 6.0451 2.96529 4.71888 3.80115 3.58544 4.8619 2.77017 5.89362 1.97721 7.16891 1.46423 9 1.46423 12.4745 1.46423 14.3515 3.64818 16.0037 6.06562z" fill="#949cba" stroke="#949cba" stroke-width="1.5"/><ellipse cx="9.00002" cy="7.68423" rx="4.73684" ry="4.73684" fill="#fff"/><ellipse cx="8.99999" cy="7.6842" rx="3.31579" ry="3.31579" fill="#949cba" stroke="#2931ff" stroke-width=".1"/><ellipse cx="10.4211" cy="5.78946" rx="1.42105" ry="1.42105" fill="#fff" stroke="#2931ff" stroke-width=".1"/><path d="M12.7369 7.68197C12.7369 9.74747 11.0634 11.4211 9.00002 11.4211 6.93667 11.4211 5.26318 9.74747 5.26318 7.68197 5.26318 5.61647 6.93667 3.94287 9.00002 3.94287 11.0634 3.94287 12.7369 5.61647 12.7369 7.68197z" stroke="#fff" stroke-width="2"/></svg>