<svg width="1012" height="185" viewBox="0 0 1012 185" fill="none" xmlns="http://www.w3.org/2000/svg"><g filter="url(#filter0_d)"><path d="M-11.9485 244.699C-4.37042 227.666 23.6312 186.818 53.0776 187.687 59.2123 187.687 68.8187 191.456 76.8946 190.949 82.6684 190.586 96.3812 183.556 105.042 158.332 113.703 133.109 122.154 125.699 127.776 125.716 131.127 125.716 137.953 130.934 144.015 156.158 150.872 178.627 171.296 223.347 198.145 222.478 203.918 222.84 218.281 218.564 229.54 198.559 243.253 176.09 273.926 133.326 294.495 133.326 303.616 133.699 357.53 162.17 387.284 141.199 407.854 126.702 399.973 66.2565 419.11 66.1888 438.247 66.121 428.482 124.659 447.015 141.199 472.261 163.733 507.378 156.614 535.071 136.068 545.152 128.589 551.432 94.3044 569.64 88.9332 584.269 84.6177 607.502 72.6369 617.894 55.6201 631.794 32.8591 631.577 4.32938 642.08 4.19323 655.02 4.02549 653.417 28.7009 664.029 55.6201 668.469 66.8834 685.771 78.5396 689.991 88.9332 698.18 109.102 699.978 124.726 714.357 124.726 721.73 124.726 729.44 113.007 733.948 102.266 738.095 92.3818 740.955 78.8246 748.082 78.6975 755.209 78.5704 757.695 93.403 761.201 102.266 767.357 117.823 772.289 128.422 779.065 141.199 783.512 149.583 794.294 168.594 806.027 168.594 827.775 168.594 840.459 119.118 855.919 119.118 871.378 119.118 883.044 168.594 902.692 168.594 922.339 168.594 933.495 240.028 948.844 240.028 964.194 240.028 964.059 151.952 996.013 158.332 1027.97 164.712 1087.49 168.594 1087.49 168.594" stroke="#2931ff" stroke-width="2" stroke-linejoin="round"/></g><defs><filter id="filter0_d" x="-17.8622" y=".192383" width="1110.42" height="251.914" filterUnits="userSpaceOnUse" color-interpolation-filters="sRGB"><feFlood flood-opacity="0" result="BackgroundImageFix"/><feColorMatrix in="SourceAlpha" type="matrix" values="0 0 0 0 0 0 0 0 0 0 0 0 0 0 0 0 0 0 127 0"/><feOffset dy="2"/><feGaussianBlur stdDeviation="2.5"/><feColorMatrix type="matrix" values="0 0 0 0 0.160784 0 0 0 0 0.192157 0 0 0 0 1 0 0 0 0.15 0"/><feBlend mode="normal" in2="BackgroundImageFix" result="effect1_dropShadow"/><feBlend mode="normal" in="SourceGraphic" in2="effect1_dropShadow" result="shape"/></filter></defs></svg>