<svg width="999" height="182" viewBox="0 0 999 182" fill="none" xmlns="http://www.w3.org/2000/svg"><path opacity=".2" d="M1.9517 205.622C9.52982 188.589 10.6312 184.446 40.0776 185.316 46.2123 185.315 55.8187 189.084 63.8946 188.577 69.6684 188.214 83.3812 181.184 92.0419 155.96 100.703 130.737 109.154 123.328 114.776 123.344 118.127 123.344 124.953 128.562 131.015 153.786 136.352 171.274 149.908 202.242 168.315 214.703L197.893 216.317C203.832 212.885 210.616 206.713 216.54 196.187 230.253 173.718 260.926 130.954 281.495 130.954 290.616 131.328 344.53 159.798 374.284 138.828 394.854 124.33 386.973 63.8847 406.11 63.8169 425.247 63.7491 415.482 122.287 434.015 138.828 459.261 161.361 494.378 154.242 522.071 133.696 532.152 126.217 538.432 91.9325 556.64 86.5614 571.269 82.2459 594.502 70.265 604.894 53.2482 618.794 30.4873 618.577 1.95755 629.08 1.82141 642.02 1.65367 640.417 26.3291 651.029 53.2482 655.469 64.5116 672.771 76.1678 676.991 86.5614 685.18 106.731 686.978 122.355 701.357 122.355 708.73 122.355 716.44 110.635 720.948 99.8937 725.095 90.01 727.955 76.4528 735.082 76.3257 742.209 76.1985 744.695 91.0311 748.201 99.8937 754.357 115.451 759.289 126.05 766.065 138.828 770.512 147.211 781.294 166.222 793.027 166.222 814.775 166.222 827.459 116.747 842.919 116.747 858.378 116.747 870.044 166.222 889.692 166.222 909.339 166.222 920.828 233.395 941.608 228.658 962.388 223.921 943.182 163.923 979.704 155.081L1074.49 166.222 958.427 257.829 197.893 216.317C192.544 219.408 187.88 220.278 185.145 220.106 179.193 220.299 173.557 218.251 168.315 214.703L1.9517 205.622z" fill="url(#paint0_linear)" stroke="#2931ff" stroke-width="2" stroke-linejoin="round"/><defs><linearGradient id="paint0_linear" x1="327.065" y1="1.82056" x2="326.855" y2="247.711" gradientUnits="userSpaceOnUse"><stop stop-color="#2931ff"/><stop offset="1" stop-color="#109cf1" stop-opacity="0"/></linearGradient></defs></svg>