<svg width="30" height="26" viewBox="0 0 30 26" fill="none" xmlns="http://www.w3.org/2000/svg"><g filter="url(#filter0_i)"><circle cx="23.5684" cy="11.6207" r="2.88849" fill="#d5eafc"/></g><circle cx="23.5684" cy="11.6207" r="2.88849" stroke="#2931ff" stroke-width="2"/><g filter="url(#filter1_i)"><path d="M23.5684 16.0044C20.8826 16.0044 18.6021 18.2298 17.7871 20.766 17.4492 21.8176 18.3625 22.7321 19.4671 22.7321h8.2026C28.7743 22.7321 29.6876 21.8176 29.3497 20.766 28.5347 18.2298 26.2542 16.0044 23.5684 16.0044z" fill="#d5eafc"/></g><path d="M18.7392 21.0719C19.4662 18.8096 21.4477 17.0044 23.5684 17.0044 25.6891 17.0044 27.6706 18.8096 28.3976 21.0719 28.4476 21.2276 28.4161 21.3537 28.3074 21.4743 28.1824 21.6132 27.9531 21.7321 27.6697 21.7321H19.4671C19.1837 21.7321 18.9544 21.6132 18.8294 21.4743 18.7207 21.3537 18.6892 21.2276 18.7392 21.0719z" stroke="#2931ff" stroke-width="2" stroke-linecap="round" stroke-linejoin="round"/><g filter="url(#filter2_i)"><circle cx="6.2157" cy="11.6207" r="2.88849" fill="#d4e9fb"/></g><circle cx="6.2157" cy="11.6207" r="2.88849" stroke="#2931ff" stroke-width="2"/><g filter="url(#filter3_i)"><path d="M6.21574 16.0044C3.52994 16.0044 1.24947 18.2298.434467 20.766.0965321 21.8176 1.00987 22.7321 2.11444 22.7321H10.317C11.4216 22.7321 12.3349 21.8176 11.997 20.766 11.182 18.2298 8.90154 16.0044 6.21574 16.0044z" fill="#d4e9fb"/></g><path d="M1.38652 21.0719C2.11351 18.8096 4.09506 17.0044 6.21574 17.0044 8.33642 17.0044 10.318 18.8096 11.045 21.0719 11.095 21.2276 11.0634 21.3537 10.9548 21.4743 10.8298 21.6132 10.6004 21.7321 10.317 21.7321H2.11444C1.83104 21.7321 1.60172 21.6132 1.47672 21.4743 1.36807 21.3537 1.3365 21.2276 1.38652 21.0719z" stroke="#2931ff" stroke-width="2" stroke-linecap="round" stroke-linejoin="round"/><g filter="url(#filter4_i)"><circle cx="14.6145" cy="7.65228" r="3.9201" fill="#2931ff"/></g><circle cx="14.6145" cy="7.65228" r="3.9201" stroke="#2931ff" stroke-width="2"/><g filter="url(#filter5_i)"><path d="M14.6146 13.6017C10.7285 13.6017 7.46774 17.0345 6.57564 20.7514 6.31785 21.8255 7.22966 22.7322 8.33423 22.7322H20.8949C21.9995 22.7322 22.9113 21.8255 22.6535 20.7514 21.7614 17.0345 18.5006 13.6017 14.6146 13.6017z" fill="#2931ff"/></g><path d="M7.54802 20.9848C8.36767 17.5697 11.3273 14.6017 14.6146 14.6017 17.9018 14.6017 20.8615 17.5697 21.6811 20.9848 21.7254 21.1693 21.6779 21.3282 21.5509 21.4656 21.4125 21.6152 21.1776 21.7322 20.8949 21.7322H8.33423C8.05158 21.7322 7.81662 21.6152 7.67821 21.4656 7.55119 21.3282 7.50373 21.1693 7.54802 20.9848z" stroke="#2931ff" stroke-width="2" stroke-linecap="round" stroke-linejoin="round"/><defs><filter id="filter0_i" x="19.6799" y="7.73218" width="7.77699" height="7.77699" filterUnits="userSpaceOnUse" color-interpolation-filters="sRGB"><feFlood flood-opacity="0" result="BackgroundImageFix"/><feBlend mode="normal" in="SourceGraphic" in2="BackgroundImageFix" result="shape"/><feColorMatrix in="SourceAlpha" type="matrix" values="0 0 0 0 0 0 0 0 0 0 0 0 0 0 0 0 0 0 127 0" result="hardAlpha"/><feOffset dx="2" dy="3"/><feComposite in2="hardAlpha" operator="arithmetic" k2="-1" k3="1"/><feColorMatrix type="matrix" values="0 0 0 0 1 0 0 0 0 1 0 0 0 0 1 0 0 0 1 0"/><feBlend mode="normal" in2="shape" result="effect1_innerShadow"/></filter><filter id="filter1_i" x="17.7158" y="16.0044" width="11.7052" height="6.72772" filterUnits="userSpaceOnUse" color-interpolation-filters="sRGB"><feFlood flood-opacity="0" result="BackgroundImageFix"/><feBlend mode="normal" in="SourceGraphic" in2="BackgroundImageFix" result="shape"/><feColorMatrix in="SourceAlpha" type="matrix" values="0 0 0 0 0 0 0 0 0 0 0 0 0 0 0 0 0 0 127 0" result="hardAlpha"/><feOffset dx="2" dy="3"/><feComposite in2="hardAlpha" operator="arithmetic" k2="-1" k3="1"/><feColorMatrix type="matrix" values="0 0 0 0 1 0 0 0 0 1 0 0 0 0 1 0 0 0 1 0"/><feBlend mode="normal" in2="shape" result="effect1_innerShadow"/></filter><filter id="filter2_i" x="2.32721" y="7.73218" width="7.77699" height="7.77699" filterUnits="userSpaceOnUse" color-interpolation-filters="sRGB"><feFlood flood-opacity="0" result="BackgroundImageFix"/><feBlend mode="normal" in="SourceGraphic" in2="BackgroundImageFix" result="shape"/><feColorMatrix in="SourceAlpha" type="matrix" values="0 0 0 0 0 0 0 0 0 0 0 0 0 0 0 0 0 0 127 0" result="hardAlpha"/><feOffset dx="2" dy="3"/><feComposite in2="hardAlpha" operator="arithmetic" k2="-1" k3="1"/><feColorMatrix type="matrix" values="0 0 0 0 1 0 0 0 0 1 0 0 0 0 1 0 0 0 1 0"/><feBlend mode="normal" in2="shape" result="effect1_innerShadow"/></filter><filter id="filter3_i" x=".363159" y="16.0044" width="11.7052" height="6.72772" filterUnits="userSpaceOnUse" color-interpolation-filters="sRGB"><feFlood flood-opacity="0" result="BackgroundImageFix"/><feBlend mode="normal" in="SourceGraphic" in2="BackgroundImageFix" result="shape"/><feColorMatrix in="SourceAlpha" type="matrix" values="0 0 0 0 0 0 0 0 0 0 0 0 0 0 0 0 0 0 127 0" result="hardAlpha"/><feOffset dx="2" dy="3"/><feComposite in2="hardAlpha" operator="arithmetic" k2="-1" k3="1"/><feColorMatrix type="matrix" values="0 0 0 0 1 0 0 0 0 1 0 0 0 0 1 0 0 0 1 0"/><feBlend mode="normal" in2="shape" result="effect1_innerShadow"/></filter><filter id="filter4_i" x="9.69443" y="2.73218" width="9.84019" height="9.84019" filterUnits="userSpaceOnUse" color-interpolation-filters="sRGB"><feFlood flood-opacity="0" result="BackgroundImageFix"/><feBlend mode="normal" in="SourceGraphic" in2="BackgroundImageFix" result="shape"/><feColorMatrix in="SourceAlpha" type="matrix" values="0 0 0 0 0 0 0 0 0 0 0 0 0 0 0 0 0 0 127 0" result="hardAlpha"/><feOffset dx="2" dy="3"/><feComposite in2="hardAlpha" operator="arithmetic" k2="-1" k3="1"/><feColorMatrix type="matrix" values="0 0 0 0 1 0 0 0 0 1 0 0 0 0 1 0 0 0 0.5 0"/><feBlend mode="normal" in2="shape" result="effect1_innerShadow"/></filter><filter id="filter5_i" x="6.53162" y="13.6017" width="16.1659" height="9.13048" filterUnits="userSpaceOnUse" color-interpolation-filters="sRGB"><feFlood flood-opacity="0" result="BackgroundImageFix"/><feBlend mode="normal" in="SourceGraphic" in2="BackgroundImageFix" result="shape"/><feColorMatrix in="SourceAlpha" type="matrix" values="0 0 0 0 0 0 0 0 0 0 0 0 0 0 0 0 0 0 127 0" result="hardAlpha"/><feOffset dx="2" dy="3"/><feComposite in2="hardAlpha" operator="arithmetic" k2="-1" k3="1"/><feColorMatrix type="matrix" values="0 0 0 0 1 0 0 0 0 1 0 0 0 0 1 0 0 0 0.5 0"/><feBlend mode="normal" in2="shape" result="effect1_innerShadow"/></filter></defs></svg>