<svg xmlns="http://www.w3.org/2000/svg" fill="none" viewBox="0 0 19 20"><path fill="#84859E" stroke="#fff" stroke-width=".1" d="M13.858 2.427v.05h1.07a3.076 3.076 0 0 1 3.076 3.076v10.469a3.076 3.076 0 0 1-3.076 3.076H3.18a3.076 3.076 0 0 1-3.076-3.076V5.552A3.076 3.076 0 0 1 3.18 2.478h1.07v-.772a.803.803 0 0 1 1.605 0v.772h6.398v-.772a.803.803 0 1 1 1.605 0v.722zM4.253 4.132v-.05H3.18a1.47 1.47 0 0 0-1.47 1.47V8.19H16.4V5.553a1.47 1.47 0 0 0-1.472-1.471h-1.07v1.34a.802.802 0 1 1-1.605 0v-1.34H5.858v1.34a.803.803 0 1 1-1.605 0v-1.29zM1.76 9.794h-.05v6.228a1.47 1.47 0 0 0 1.471 1.47h11.748a1.47 1.47 0 0 0 1.471-1.47V9.794H1.76z"/></svg>