<svg width="16" height="17" viewBox="0 0 16 17" fill="none" xmlns="http://www.w3.org/2000/svg"><g clip-path="url(#clip0)"><path d="M13.3333 6.00162H7.33333C6.59695 6.00162 6 6.59857 6 7.33495V13.335C6 14.0713 6.59695 14.6683 7.33333 14.6683H13.3333C14.0697 14.6683 14.6667 14.0713 14.6667 13.335V7.33495C14.6667 6.59857 14.0697 6.00162 13.3333 6.00162z" stroke="#84859E" stroke-width="1.5" stroke-linecap="round" stroke-linejoin="round"/><path d="M3.33331 10.0016H2.66665C2.31302 10.0016 1.97389 9.86114 1.72384 9.61109 1.47379 9.36104 1.33331 9.02191 1.33331 8.66828V2.66828C1.33331 2.31466 1.47379 1.97552 1.72384 1.72547 1.97389 1.47543 2.31302 1.33495 2.66665 1.33495h6C9.02027 1.33495 9.35941 1.47543 9.60946 1.72547 9.8595 1.97552 9.99998 2.31466 9.99998 2.66828V3.33495" stroke="#84859E" stroke-width="1.5" stroke-linecap="round" stroke-linejoin="round"/></g><defs><clipPath id="clip0"><path d="M0 0h16v16H0z" fill="#fff" transform="translate(0 0.00161743)"/></clipPath></defs></svg>