<svg width="68" height="35" viewBox="0 0 68 35" fill="none" xmlns="http://www.w3.org/2000/svg"><g filter="url(#filter0_i)"><path d="M64.8333 34.25H19L21.0833 1H66.9167L64.8333 34.25z" fill="#d4e9fc"/></g><path d="M66 16.5C50.1898 22.1951 42.4159 19.0498 22.4 23L21.8 30.5l-.25 3 37.95 1 5-1 1.5-17z" fill="#cbe0f2"/><g filter="url(#filter1_i)"><path d="M20.25 14.5H66.0833L66.5 8.25H20.6667L20.25 14.5z" fill="#eb276e"/></g><path d="M20.6667 8.25H66.5001" stroke="#eb276e" stroke-width="1.5" stroke-miterlimit="10" stroke-linejoin="round"/><path d="M20.25 14.5H66.0833" stroke="#eb276e" stroke-width="1.5" stroke-miterlimit="10" stroke-linejoin="round"/><path d="M25.25 22.8334H29.4167" stroke="#eb276e" stroke-width="1.5" stroke-miterlimit="10" stroke-linecap="round" stroke-linejoin="round"/><path d="M33.5833 22.8334H41.9167" stroke="#eb276e" stroke-width="1.5" stroke-miterlimit="10" stroke-linecap="round" stroke-linejoin="round"/><path d="M27.3333 27H25.25" stroke="#eb276e" stroke-width="1.5" stroke-miterlimit="10" stroke-linecap="round" stroke-linejoin="round"/><path d="M37.75 27H31.5" stroke="#eb276e" stroke-width="1.5" stroke-miterlimit="10" stroke-linecap="round" stroke-linejoin="round"/><path d="M58.5833 27h-6.25" stroke="#eb276e" stroke-width="1.5" stroke-miterlimit="10" stroke-linecap="round" stroke-linejoin="round"/><path d="M65.0096 31.4376C64.9105 33.0185 63.5994 34.25 62.0154 34.25H22.1938C20.4632 34.25 19.0915 32.7897 19.1997 31.0624L20.9071 3.8124C21.0062 2.23149 22.3172 1 23.9012 1H63.7228C65.4535 1 66.8252 2.46034 66.7169 4.1876L65.0096 31.4376z" stroke="#eb276e" stroke-width="1.5" stroke-miterlimit="10" stroke-linejoin="round"/><path d="M5.75 23.25h8.5z" stroke="#eb276e" stroke-width="1.5" stroke-linecap="round" stroke-linejoin="round"/><path d="M6.75 9.25h7.5z" stroke="#eb276e" stroke-width="1.5" stroke-linecap="round" stroke-linejoin="round"/><path d="M.75 16.25h8.5z" stroke="#eb276e" stroke-width="1.5" stroke-linecap="round" stroke-linejoin="round"/><defs><filter id="filter0_i" x="19" y="1" width="47.9167" height="33.25" filterUnits="userSpaceOnUse" color-interpolation-filters="sRGB"><feFlood flood-opacity="0" result="BackgroundImageFix"/><feBlend mode="normal" in="SourceGraphic" in2="BackgroundImageFix" result="shape"/><feColorMatrix in="SourceAlpha" type="matrix" values="0 0 0 0 0 0 0 0 0 0 0 0 0 0 0 0 0 0 127 0" result="hardAlpha"/><feOffset dx="2.5" dy="2.5"/><feComposite in2="hardAlpha" operator="arithmetic" k2="-1" k3="1"/><feColorMatrix type="matrix" values="0 0 0 0 1 0 0 0 0 1 0 0 0 0 1 0 0 0 1 0"/><feBlend mode="normal" in2="shape" result="effect1_innerShadow"/></filter><filter id="filter1_i" x="20.25" y="8.25" width="46.25" height="6.25" filterUnits="userSpaceOnUse" color-interpolation-filters="sRGB"><feFlood flood-opacity="0" result="BackgroundImageFix"/><feBlend mode="normal" in="SourceGraphic" in2="BackgroundImageFix" result="shape"/><feColorMatrix in="SourceAlpha" type="matrix" values="0 0 0 0 0 0 0 0 0 0 0 0 0 0 0 0 0 0 127 0" result="hardAlpha"/><feOffset dx="2" dy="2.5"/><feComposite in2="hardAlpha" operator="arithmetic" k2="-1" k3="1"/><feColorMatrix type="matrix" values="0 0 0 0 1 0 0 0 0 1 0 0 0 0 1 0 0 0 0.5 0"/><feBlend mode="normal" in2="shape" result="effect1_innerShadow"/></filter></defs></svg>