<svg width="15" height="14" viewBox="0 0 15 14" fill="none" xmlns="http://www.w3.org/2000/svg"><path d="M10.1875 5.22016C10.1875 6.48745 9.63097 7.63728 8.72313 8.45681 7.87904 9.21879 6.73515 9.69033 5.46874 9.69033 2.82939 9.69033.75 7.65647.75 5.22016.75 2.78386 2.82939.75 5.46874.75 8.1081.75 10.1875 2.78386 10.1875 5.22016z" fill="#84859e" stroke="#84859e" stroke-width="1.5"/><path d="M14 8.70008C14 10.9875 12.0436 12.9202 9.53124 12.9202 7.01888 12.9202 5.0625 10.9875 5.0625 8.70008 5.0625 6.41268 7.01888 4.47992 9.53124 4.47992 12.0436 4.47992 14 6.41268 14 8.70008z" stroke="#84859e" stroke-width="2"/></svg>