<svg width="16" height="11" viewBox="0 0 16 11" fill="none" xmlns="http://www.w3.org/2000/svg"><path d="M15.8154 4.43419C14.2491 1.77636 11.328.0 8 0 4.67056.0 1.75012 1.77761.184624 4.43419.0637488 4.6393.0 4.87304.0 5.11112.0 5.3492.0637488 5.58293.184624 5.78805 1.75087 8.44585 4.67195 10.2222 8 10.2222 11.3294 10.2222 14.2499 8.4446 15.8154 5.78802 15.9363 5.58291 16 5.34918 16 5.1111 16 4.87303 15.9363 4.63929 15.8154 4.43419zM8 8.88887C5.91217 8.88887 4.22223 7.19924 4.22223 5.1111 4.22223 3.02327 5.91184 1.33333 8 1.33333 10.0878 1.33333 11.7778 3.02294 11.7778 5.1111 11.7778 7.19893 10.0882 8.88887 8 8.88887zM10.8889 5.1111C10.8889 6.7066 9.5955 7.99999 8 7.99999 6.4045 7.99999 5.11112 6.7066 5.11112 5.1111 5.11112 4.61921 5.2342 4.15613 5.451 3.75074L5.45098 3.75163C5.45098 4.4086 5.98356 4.94116 6.64053 4.94116 7.2975 4.94116 7.83008 4.40858 7.83008 3.75163 7.83008 3.09466 7.2975 2.56208 6.64053 2.56208L6.63964 2.56211C7.04503 2.3453 7.50811 2.22222 8 2.22222 9.5955 2.22222 10.8889 3.51561 10.8889 5.1111z" fill="#9c9db0"/></svg>