<svg width="1012" height="266" viewBox="0 0 1012 266" fill="none" xmlns="http://www.w3.org/2000/svg"><mask id="mask0" mask-type="alpha" maskUnits="userSpaceOnUse" x="0" y="0" width="1012" height="266"><path d="M0 .438232h1012v265H0z" fill="#c4c4c4"/></mask><g mask="url(#mask0)"><path opacity=".2" d="M14.9517 289.622C22.5298 272.589 23.6312 268.446 53.0776 269.316 59.2123 269.315 68.8187 273.084 76.8946 272.577 82.6684 272.214 96.3812 265.184 105.042 239.96 113.703 214.737 122.154 207.328 127.776 207.344 131.127 207.344 137.953 212.562 144.015 237.786 149.352 255.274 162.908 286.242 181.315 298.703L210.893 300.317C216.832 296.885 223.616 290.713 229.54 280.187 243.253 257.718 273.926 214.954 294.495 214.954 303.616 215.328 357.53 243.798 387.284 222.828 407.854 208.33 399.973 147.885 419.11 147.817 438.247 147.749 428.482 206.287 447.015 222.828 472.261 245.361 507.378 238.242 535.071 217.696 545.152 210.217 551.432 175.933 569.64 170.561 584.269 166.246 607.502 154.265 617.894 137.248 631.794 114.487 631.577 85.9575 642.08 85.8214 655.02 85.6537 653.417 110.329 664.029 137.248 668.469 148.512 685.771 160.168 689.991 170.561 698.18 190.731 699.978 206.355 714.357 206.355 721.73 206.355 729.44 194.635 733.948 183.894 738.095 174.01 740.955 160.453 748.082 160.326 755.209 160.199 757.695 175.031 761.201 183.894 767.357 199.451 772.289 210.05 779.065 222.828 783.512 231.211 794.294 250.222 806.027 250.222 827.775 250.222 840.459 200.747 855.919 200.747 871.378 200.747 883.044 250.222 902.692 250.222 922.339 250.222 933.828 317.395 954.608 312.658 975.388 307.921 956.182 247.923 992.704 239.081L1087.49 250.222 971.427 341.829 210.893 300.317C205.544 303.408 200.88 304.278 198.145 304.106 192.193 304.299 186.557 302.251 181.315 298.703L14.9517 289.622z" fill="url(#paint0_linear)" stroke="#2931ff" stroke-width="2" stroke-linejoin="round"/><g filter="url(#filter0_d)"><path d="M-11.9485 325.699C-4.37042 308.666 23.6312 267.818 53.0776 268.687 59.2123 268.687 68.8187 272.456 76.8946 271.949 82.6684 271.586 96.3812 264.556 105.042 239.332 113.703 214.109 122.154 206.699 127.776 206.716 131.127 206.716 137.953 211.934 144.015 237.158 150.872 259.627 171.296 304.347 198.145 303.478 203.918 303.84 218.281 299.564 229.54 279.559 243.253 257.09 273.926 214.326 294.495 214.326 303.616 214.699 357.53 243.17 387.284 222.199 407.854 207.702 399.973 147.257 419.11 147.189 438.247 147.121 428.482 205.659 447.015 222.199 472.261 244.733 507.378 237.614 535.071 217.068 545.152 209.589 551.432 175.304 569.64 169.933 584.269 165.618 607.502 153.637 617.894 136.62 631.794 113.859 631.577 85.3294 642.08 85.1932 655.02 85.0255 653.417 109.701 664.029 136.62 668.469 147.883 685.771 159.54 689.991 169.933 698.18 190.102 699.978 205.726 714.357 205.726 721.73 205.726 729.44 194.007 733.948 183.266 738.095 173.382 740.955 159.825 748.082 159.697 755.209 159.57 757.695 174.403 761.201 183.266 767.357 198.823 772.289 209.422 779.065 222.199 783.512 230.583 794.294 249.594 806.027 249.594 827.775 249.594 840.459 200.118 855.919 200.118 871.378 200.118 883.044 249.594 902.692 249.594 922.339 249.594 933.495 321.028 948.844 321.028 964.194 321.028 964.059 232.952 996.013 239.332 1027.97 245.712 1087.49 249.594 1087.49 249.594" stroke="#2931ff" stroke-width="2" stroke-linejoin="round"/></g><g opacity=".2"><path d="M54.4213 178.432C24.9749 177.562-3.02673 218.411-10.6049 235.444v36.09H281.981 1023.61L1056.98 252.42C1056.98 252.42 1113.95 215.486 1100.35 206.864 1091.81 201.444 1040.24 96.5462 1023.61 96.5462 1003.79 96.5462 959.664 175.436 939.2 202.374 930.321 214.063 921.184 219.715 906.586 220.975 884.71 222.861 877.777 209.465 859.904 189.547 851.065 179.696 854.566 164.781 841.359 165.174 828.466 165.558 829.262 180.959 819.616 189.547 800.62 206.458 785.969 177.51 768.457 175.436 730.108 170.895 745.941 102.888 725.864 102.888 705.787 102.888 703.672 143.857 678.695 146.902 660.46 149.126 652.027 135.891 634.083 131.944 615.122 127.773 601.962 135.6 584.64 126.813 572.155 120.479 565.294 102.888 557.91 102.888 550.525 102.888 545.106 118.376 536.415 126.813 527.723 135.249 473.604 154.477 448.358 131.944 429.826 115.403 439.591 56.8656 420.454 56.9334 401.317 57.0012 409.198 117.447 388.628 131.944 358.874 152.915 304.96 124.444 295.839 124.071 275.27 124.071 244.596 166.834 230.883 189.304 219.624 209.308 205.262 213.585 199.488 213.222 172.64 214.092 152.215 169.371 145.359 146.902 139.296 121.679 132.471 116.46 129.12 116.46 123.498 116.444 115.046 123.853 106.386 149.077 97.7249 174.3 84.0121 181.331 78.2383 181.693 70.1624 182.2 60.556 178.432 54.4213 178.432z" fill="url(#paint1_linear)"/><path d="M-10.6049 235.444-11.5185 235.038C-11.5754 235.166-11.6049 235.304-11.6049 235.444h1zm65.0262-57.012L54.3918 179.432C54.4016 179.432 54.4115 179.432 54.4213 179.432v-1zM78.2383 181.693 78.1756 180.695 78.2383 181.693zM129.12 116.46 129.117 117.46H129.12v-1zM145.359 146.902 144.387 147.136C144.391 147.156 144.397 147.175 144.402 147.194L145.359 146.902zM199.488 213.222 199.551 212.224C199.519 212.222 199.488 212.222 199.456 212.223L199.488 213.222zM230.883 189.304 230.03 188.783C230.024 188.793 230.018 188.803 230.012 188.813L230.883 189.304zM295.839 124.071 295.88 123.071C295.866 123.071 295.852 123.071 295.839 123.071v1zM388.628 131.944 389.204 132.761 388.628 131.944zM420.454 56.9334 420.45 55.9334 420.454 56.9334zM448.358 131.944 447.692 132.69 448.358 131.944zM536.415 126.813 537.111 127.53 536.415 126.813zM584.64 126.813 584.188 127.704 584.64 126.813zM634.083 131.944 633.868 132.921 634.083 131.944zM678.695 146.902 678.816 147.895 678.695 146.902zM768.457 175.436 768.339 176.429 768.457 175.436zM906.586 220.975 906.672 221.971 906.586 220.975zM939.2 202.374 939.997 202.979 939.2 202.374zM819.616 189.547 820.281 190.294 819.616 189.547zM841.359 165.174 841.329 164.175 841.359 165.174zM859.904 189.547 860.648 188.879 859.904 189.547zM1100.35 206.864 1100.89 206.02 1100.35 206.864zM1056.98 252.42 1057.47 253.288C1057.49 253.279 1057.5 253.269 1057.52 253.259L1056.98 252.42zM1023.61 271.534v1C1023.79 272.534 1023.96 272.488 1024.11 272.402L1023.61 271.534zm-1034.2149.0h-1c0 .5520000000000209.44780000000000086 1 1 1v-1zM-9.6912 235.851C-5.9484 227.438 2.88274 213.063 14.4324 200.914 26.0181 188.726 40.1173 179.01 54.3918 179.432L54.4508 177.433C39.2789 176.984 24.654 187.258 12.9828 199.536 1.27554 211.851-7.68319 226.417-11.5185 235.038L-9.6912 235.851zM54.4213 179.432C57.3545 179.432 61.1472 180.338 65.396 181.231 69.5673 182.109 74.1109 182.954 78.3009 182.691L78.1756 180.695C74.2898 180.939 69.9922 180.154 65.8077 179.274 61.7006 178.41 57.6228 177.432 54.4213 177.432v2zM78.3009 182.691C84.6352 182.294 98.5994 174.833 107.331 149.402L105.44 148.752C96.8504 173.768 83.389 180.368 78.1756 180.695L78.3009 182.691zM107.331 149.402C111.644 136.842 115.878 128.799 119.681 123.918 123.501 119.015 126.761 117.454 129.117 117.46L129.123 115.46C125.857 115.451 122.079 117.586 118.103 122.689 114.11 127.815 109.788 136.088 105.44 148.752L107.331 149.402zM129.12 117.46C130.279 117.46 132.561 118.402 135.383 122.766 138.179 127.089 141.368 134.576 144.387 147.136L146.331 146.669C143.287 134.005 140.032 126.271 137.062 121.679 134.119 117.128 131.312 115.46 129.12 115.46v2zM144.402 147.194C147.85 158.494 154.707 175.388 164.096 189.372 168.791 196.364 174.147 202.671 180.062 207.182 185.981 211.696 192.512 214.449 199.521 214.222L199.456 212.223C193.041 212.431 186.95 209.92 181.275 205.591 175.595 201.26 170.381 195.145 165.757 188.257 156.507 174.481 149.724 157.78 146.315 146.611L144.402 147.194zM199.426 214.22C205.664 214.612 220.352 210.055 231.755 189.794L230.012 188.813C218.897 208.561 204.86 212.558 199.551 212.224L199.426 214.22zM231.737 189.825C238.575 178.621 249.637 162.365 261.539 148.924 267.491 142.202 273.628 136.213 279.529 131.912 285.456 127.592 291.016 125.071 295.839 125.071v-2C290.377 123.071 284.389 125.895 278.351 130.295 272.288 134.715 266.043 140.821 260.041 147.598 248.036 161.156 236.905 177.517 230.03 188.783L231.737 189.825zm64.061-64.755C296.78 125.11 298.492 125.548 300.918 126.328 303.306 127.096 306.258 128.15 309.669 129.351 316.473 131.745 325.036 134.698 334.255 136.982 352.615 141.531 373.935 143.523 389.204 132.761L388.052 131.127C373.567 141.336 353.052 139.578 334.736 135.041 325.618 132.782 317.132 129.857 310.333 127.464 306.941 126.271 303.952 125.203 301.53 124.424 299.146 123.658 297.178 123.125 295.88 123.071L295.798 125.07zM389.204 132.761C394.623 128.942 398.071 122.181 400.54 114.42 403.018 106.637 404.57 97.648 406.063 89.2017 407.565 80.7054 409.002 72.7967 411.233 67.0032 413.485 61.158 416.349 57.948 420.457 57.9334L420.45 55.9334C414.989 55.9528 411.663 60.3239 409.367 66.2843 407.051 72.2964 405.585 80.4178 404.093 88.8536 402.593 97.3394 401.063 106.184 398.635 113.814 396.199 121.467 392.918 127.697 388.052 131.127L389.204 132.761zM420.457 57.9334C424.561 57.9189 427.305 60.9842 429.34 66.6379 431.363 72.256 432.504 79.9714 433.642 88.3452 434.772 96.6682 435.895 105.601 437.902 113.483 439.903 121.342 442.828 128.349 447.692 132.69L449.024 131.198C444.622 127.269 441.818 120.756 439.84 112.989 437.868 105.245 436.761 96.4466 435.624 88.076 434.494 79.7563 433.33 71.816 431.222 65.9605 429.127 60.1405 425.915 55.9141 420.45 55.9334L420.457 57.9334zM447.692 132.69C460.674 144.277 480.923 145.034 498.763 141.978 507.721 140.443 516.155 137.933 522.906 135.273 529.61 132.63 534.785 129.788 537.111 127.53L535.718 126.095C533.698 128.056 528.849 130.78 522.172 133.412 515.542 136.025 507.24 138.496 498.425 140.006 480.721 143.04 461.289 142.145 449.024 131.198L447.692 132.69zM537.111 127.53C541.553 123.219 545.173 117.09 548.478 112.251 550.156 109.793 551.746 107.672 553.344 106.168 554.944 104.661 556.432 103.888 557.91 103.888v-2C555.695 101.888 553.736 103.051 551.973 104.712 550.206 106.375 548.513 108.653 546.827 111.123 543.403 116.136 539.968 121.97 535.718 126.095L537.111 127.53zM557.91 103.888C559.359 103.888 560.931 104.759 562.764 106.467 564.578 108.157 566.471 110.492 568.585 113.104 572.753 118.256 577.72 124.424 584.188 127.704L585.092 125.921C579.075 122.868 574.369 117.073 570.139 111.846 568.054 109.269 566.066 106.81 564.127 105.004 562.207 103.215 560.152 101.888 557.91 101.888v2zM584.188 127.704C593.077 132.214 600.904 132.448 608.79 132.109 616.689 131.769 624.549 130.871 633.868 132.921L634.298 130.967C624.656 128.846 616.455 129.777 608.704 130.111 600.939 130.445 593.525 130.199 585.092 125.921L584.188 127.704zM633.868 132.921C642.667 134.856 649.093 139.05 655.81 142.62 662.507 146.18 669.396 149.044 678.816 147.895L678.574 145.91C669.759 146.985 663.313 144.343 656.749 140.854 650.205 137.376 643.442 132.979 634.298 130.967L633.868 132.921zM678.816 147.895C685.355 147.098 690.372 143.813 694.507 139.426 698.622 135.061 701.908 129.556 704.982 124.255 708.084 118.906 710.956 113.794 714.288 109.996 717.596 106.227 721.241 103.888 725.864 103.888v-2C720.448 101.888 716.301 104.67 712.785 108.677 709.293 112.657 706.31 117.977 703.252 123.251 700.166 128.573 696.985 133.881 693.051 138.054 689.137 142.207 684.523 145.184 678.574 145.91L678.816 147.895zM725.864 103.888C728.038 103.888 729.719 104.787 731.119 106.461 732.553 108.174 733.683 110.696 734.639 113.873 736.557 120.255 737.635 128.762 739.326 137.646 741.001 146.444 743.269 155.523 747.59 162.701 751.942 169.93 758.392 175.252 768.339 176.429L768.575 174.443C759.347 173.351 753.396 168.468 749.303 161.669 745.18 154.818 742.961 146.044 741.291 137.272 739.637 128.586 738.512 119.809 736.554 113.297 735.571 110.028 734.345 107.2 732.653 105.177 730.926 103.114 728.709 101.888 725.864 101.888v2zM906.672 221.971C914.086 221.331 920.169 219.57 925.54 216.45 930.906 213.333 935.504 208.893 939.997 202.979L938.404 201.77C934.017 207.545 929.607 211.775 924.535 214.721 919.469 217.664 913.684 219.359 906.5 219.978L906.672 221.971zM768.339 176.429C772.477 176.919 776.515 179.009 780.614 181.728 782.658 183.083 784.688 184.574 786.74 186.078 788.785 187.576 790.85 189.086 792.933 190.448 797.083 193.163 801.414 195.375 805.986 195.765 810.619 196.16 815.359 194.675 820.281 190.294L818.951 188.8C814.375 192.874 810.16 194.113 806.156 193.772 802.092 193.425 798.103 191.441 794.028 188.774 791.997 187.445 789.972 185.967 787.922 184.465 785.879 182.968 783.81 181.447 781.72 180.061 777.553 177.297 773.193 174.99 768.575 174.443L768.339 176.429zM820.281 190.294C822.808 188.044 824.631 185.365 826.143 182.657 826.899 181.303 827.581 179.933 828.233 178.603 828.889 177.265 829.509 175.976 830.155 174.75 831.449 172.292 832.79 170.199 834.533 168.693 836.245 167.215 838.391 166.263 841.388 166.174L841.329 164.175C837.881 164.277 835.292 165.395 833.225 167.18 831.19 168.938 829.709 171.305 828.385 173.818 827.722 175.078 827.084 176.403 826.437 177.723 825.787 179.049 825.124 180.378 824.397 181.682 822.942 184.289 821.247 186.756 818.951 188.8L820.281 190.294zM841.388 166.174C844.484 166.082 846.476 166.881 847.917 168.175 849.4 169.507 850.408 171.454 851.336 173.877 851.797 175.082 852.225 176.367 852.687 177.725 853.146 179.074 853.635 180.485 854.207 181.902 855.352 184.738 856.843 187.633 859.16 190.215L860.648 188.879C858.545 186.535 857.159 183.872 856.062 181.153 855.512 179.793 855.039 178.427 854.581 177.081 854.126 175.743 853.682 174.412 853.203 173.162 852.25 170.673 851.105 168.35 849.253 166.687 847.361 164.988 844.837 164.07 841.329 164.175L841.388 166.174zM859.16 190.215C863.625 195.191 867.378 199.727 870.907 203.782 874.419 207.816 877.687 211.35 881.102 214.205 887.997 219.969 895.458 222.938 906.672 221.971L906.5 219.978C895.839 220.898 888.895 218.112 882.385 212.67 879.098 209.922 875.915 206.49 872.416 202.469 868.935 198.47 865.119 193.862 860.648 188.879L859.16 190.215zM939.997 202.979C945.138 196.211 951.753 186.197 959.072 175.022 966.399 163.833 974.443 151.46 982.467 139.93 990.494 128.394 998.476 117.737 1005.67 109.973 1009.27 106.09 1012.65 102.96 1015.71 100.807 1018.79 98.6381 1021.44 97.5462 1023.61 97.5462v-2C1020.83 95.5462 1017.76 96.9196 1014.56 99.1706 1011.33 101.437 1007.85 104.68 1004.2 108.614 996.911 116.484 988.865 127.233 980.825 138.787 972.782 150.347 964.719 162.747 957.398 173.926 950.068 185.12 943.494 195.069 938.404 201.77L939.997 202.979zM1023.61 97.5462C1024.4 97.5462 1025.39 97.8615 1026.61 98.5849 1027.81 99.3025 1029.16 100.378 1030.64 101.788 1033.6 104.608 1036.97 108.673 1040.61 113.614 1047.89 123.491 1056.14 136.737 1064.15 150.185 1068.16 156.905 1072.1 163.669 1075.83 170.08 1079.56 176.489 1083.08 182.548 1086.23 187.851 1089.38 193.152 1092.17 197.713 1094.45 201.123 1095.59 202.827 1096.61 204.258 1097.48 205.356 1098.34 206.424 1099.13 207.272 1099.82 207.709L1100.89 206.02C1100.51 205.779 1099.89 205.172 1099.05 204.108 1098.22 203.074 1097.24 201.696 1096.11 200.013 1093.87 196.649 1091.1 192.125 1087.95 186.83 1084.81 181.536 1081.3 175.487 1077.56 169.074 1073.83 162.663 1069.88 155.891 1065.87 149.161 1057.85 135.707 1049.56 122.389 1042.22 112.428 1038.55 107.451 1035.1 103.278 1032.02 100.341 1030.48 98.8718 1029.01 97.688 1027.63 96.8663 1026.26 96.0505 1024.9 95.5462 1023.61 95.5462v2zM1099.82 207.709C1100.53 208.159 1100.95 208.666 1101.19 209.201 1101.43 209.741 1101.51 210.385 1101.4 211.158 1101.18 212.744 1100.19 214.731 1098.5 217.028 1095.15 221.596 1089.39 226.955 1083.13 232.103 1076.88 237.236 1070.21 242.106 1065.09 245.696 1062.53 247.49 1060.37 248.962 1058.84 249.986 1058.08 250.498 1057.47 250.897 1057.06 251.168 1056.86 251.304 1056.7 251.407 1056.59 251.477 1056.54 251.512 1056.5 251.538 1056.47 251.555 1056.46 251.564 1056.45 251.571 1056.44 251.575 1056.44 251.577 1056.44 251.579 1056.43 251.58 1056.43 251.58 1056.43 251.581 1056.43 251.581c0 0 0 0 .5499999999999545.8389999999999986C1057.52 253.259 1057.52 253.259 1057.52 253.259 1057.52 253.259 1057.52 253.258 1057.52 253.257 1057.53 253.256 1057.53 253.255 1057.53 253.252 1057.54 253.248 1057.55 253.241 1057.56 253.232 1057.59 253.214 1057.63 253.187 1057.69 253.151 1057.79 253.08 1057.95 252.976 1058.16 252.839 1058.58 252.565 1059.19 252.162 1059.95 251.647 1061.49 250.617 1063.67 249.137 1066.24 247.333 1071.38 243.728 1078.1 238.826 1084.4 233.648 1090.68 228.484 1096.61 222.993 1100.12 218.211 1101.86 215.833 1103.09 213.52 1103.38 211.436 1103.53 210.374 1103.44 209.34 1103.02 208.392 1102.6 207.439 1101.88 206.647 1100.89 206.02L1099.82 207.709zM1056.48 251.553 1023.12 270.666 1024.11 272.402 1057.47 253.288 1056.48 251.553zM1023.61 270.534H281.981v2H1023.61v-2zm-741.629.0H-10.6049v2H281.981v-2zM-9.60486 271.534v-36.09H-11.6049v36.09H-9.60486z" fill="#44aa81"/></g><g filter="url(#filter1_d)"><path d="M-10.8688 235.354-11.7825 234.948C-11.8394 235.076-11.8688 235.214-11.8688 235.354h1zm65.0261-57.012L54.1278 179.342C54.1377 179.342 54.1475 179.342 54.1574 179.342L54.1573 178.342zM77.9743 181.603 77.9117 180.605 77.9743 181.603zM128.856 116.371 128.853 117.371H128.856v-1zM145.095 146.813 144.123 147.046C144.127 147.066 144.133 147.085 144.138 147.104L145.095 146.813zM199.224 213.132 199.287 212.134C199.255 212.132 199.224 212.132 199.192 212.133L199.224 213.132zM230.619 189.214 229.766 188.693C229.76 188.703 229.754 188.713 229.748 188.723L230.619 189.214zM295.575 123.981 295.616 122.982C295.602 122.981 295.588 122.981 295.575 122.981v1zM388.364 131.854 387.788 131.037 388.364 131.854zM448.094 131.854 448.76 131.108 448.094 131.854zM633.819 131.854 634.034 130.878 633.819 131.854zM584.376 126.723 583.924 127.615 584.376 126.723zM678.431 146.813 678.552 147.805 678.431 146.813zM768.193 175.347 768.076 176.34 768.193 175.347zM841.095 165.084 841.065 164.085 841.095 165.084zM906.322 220.885 906.237 219.888 906.322 220.885zM938.936 202.285 938.14 201.68 938.936 202.285zM819.352 189.457 818.687 188.71 819.352 189.457zM859.64 189.457 858.896 190.125 859.64 189.457zM1056.71 252.33 1057.21 253.198C1057.23 253.189 1057.24 253.18 1057.26 253.17L1056.71 252.33zM1100.09 206.774 1100.62 205.93 1100.09 206.774zM1023.35 271.444v1C1023.52 272.444 1023.69 272.399 1023.85 272.312L1023.35 271.444zm-1034.2188.0h-1c0 .5529999999999973.4477000000000011 1 1 1v-1zM-9.95518 235.761C-6.21238 227.348 2.61876 212.973 14.1684 200.824 25.7542 188.636 39.8533 178.92 54.1278 179.342L54.1869 177.343C39.0149 176.895 24.3901 187.168 12.7189 199.446 1.01156 211.761-7.94717 226.327-11.7825 234.948L-9.95518 235.761zM54.1574 179.342C57.0905 179.342 60.8832 180.248 65.132 181.142 69.3033 182.019 73.8469 182.865 78.0369 182.602L77.9117 180.605C74.0258 180.849 69.7283 180.064 65.5437 179.184 61.4366 178.321 57.3588 177.342 54.1573 177.342L54.1574 179.342zM78.0369 182.602C84.3712 182.204 98.3354 174.743 107.067 149.312L105.176 148.662C96.5864 173.678 83.1251 180.278 77.9117 180.605L78.0369 182.602zM107.067 149.312C111.38 136.752 115.614 128.709 119.417 123.828 123.237 118.925 126.497 117.364 128.853 117.371L128.859 115.371C125.593 115.361 121.815 117.496 117.839 122.599 113.846 127.725 109.524 135.998 105.176 148.662L107.067 149.312zM128.856 117.371C130.015 117.371 132.297 118.312 135.119 122.676 137.915 126.999 141.104 134.486 144.123 147.046L146.067 146.579C143.023 133.915 139.768 126.182 136.798 121.59 133.855 117.038 131.048 115.37 128.856 115.371v2zM144.138 147.104C147.586 158.404 154.443 175.298 163.832 189.282 168.527 196.275 173.883 202.581 179.798 207.092 185.717 211.606 192.248 214.359 199.257 214.132L199.192 212.133C192.777 212.341 186.686 209.83 181.011 205.501 175.331 201.17 170.117 195.055 165.493 188.167 156.243 174.391 149.46 157.69 146.051 146.521L144.138 147.104zM199.162 214.131C205.4 214.522 220.088 209.965 231.491 189.704L229.748 188.723C218.633 208.472 204.596 212.468 199.287 212.134L199.162 214.131zM231.473 189.735C238.311 178.531 249.373 162.275 261.275 148.834 267.227 142.112 273.364 136.123 279.265 131.822 285.192 127.502 290.752 124.981 295.575 124.981v-2C290.113 122.981 284.125 125.805 278.087 130.206 272.024 134.625 265.779 140.731 259.777 147.508 247.772 161.066 236.641 177.427 229.766 188.693L231.473 189.735zM295.534 124.98C296.516 125.02 298.228 125.458 300.654 126.238 303.042 127.006 305.994 128.06 309.405 129.261 316.209 131.656 324.772 134.608 333.992 136.892 352.351 141.441 373.672 143.433 388.94 132.672L387.788 131.037C373.303 141.246 352.788 139.488 334.472 134.951 325.354 132.692 316.868 129.767 310.069 127.374 306.677 126.181 303.688 125.113 301.266 124.334 298.882 123.568 296.914 123.035 295.616 122.982L295.534 124.98zM388.94 132.672C394.359 128.853 397.807 122.091 400.276 114.331 402.754 106.547 404.306 97.5581 405.799 89.1119 407.301 80.6156 408.738 72.7069 410.969 66.9133 413.221 61.0681 416.085 57.8581 420.193 57.8436L420.186 55.8436C414.725 55.8629 411.399 60.234 409.103 66.1944 406.787 72.2065 405.321 80.328 403.829 88.7637 402.329 97.2495 400.799 106.094 398.371 113.724 395.935 121.377 392.654 127.607 387.788 131.037L388.94 132.672zM420.193 57.8436C424.297 57.829 427.041 60.8944 429.076 66.5481 431.099 72.1662 432.24 79.8815 433.378 88.2553 434.508 96.5783 435.631 105.511 437.638 113.393 439.639 121.252 442.564 128.259 447.428 132.6L448.76 131.108C444.358 127.179 441.554 120.666 439.576 112.899 437.604 105.155 436.497 96.3567 435.36 87.9861 434.23 79.6664 433.066 71.7262 430.958 65.8706 428.863 60.0507 425.651 55.8242 420.186 55.8436L420.193 57.8436zM447.428 132.6C460.41 144.187 480.659 144.944 498.499 141.888 507.457 140.353 515.891 137.843 522.642 135.183 529.346 132.54 534.521 129.698 536.847 127.44L535.454 126.005C533.434 127.966 528.585 130.69 521.908 133.322 515.278 135.935 506.976 138.406 498.161 139.916 480.457 142.95 461.025 142.055 448.76 131.108L447.428 132.6zM536.847 127.44C541.289 123.129 544.909 117 548.214 112.161 549.892 109.704 551.482 107.582 553.08 106.078 554.68 104.571 556.168 103.798 557.646 103.798v-2C555.431 101.798 553.472 102.961 551.709 104.622 549.942 106.285 548.249 108.563 546.563 111.033 543.139 116.046 539.704 121.88 535.454 126.005L536.847 127.44zM557.646 103.798C559.095 103.798 560.667 104.669 562.5 106.377 564.314 108.067 566.207 110.402 568.321 113.014 572.489 118.166 577.456 124.334 583.924 127.615L584.828 125.831C578.811 122.778 574.105 116.983 569.875 111.756 567.79 109.179 565.802 106.72 563.863 104.914 561.943 103.125 559.888 101.798 557.646 101.798v2zM583.924 127.615C592.813 132.124 600.64 132.358 608.526 132.019 616.425 131.679 624.285 130.781 633.604 132.831L634.034 130.878C624.392 128.757 616.191 129.687 608.44 130.021 600.675 130.355 593.261 130.109 584.828 125.831L583.924 127.615zM633.604 132.831C642.403 134.766 648.829 138.96 655.546 142.53 662.243 146.09 669.132 148.954 678.552 147.805L678.31 145.82C669.495 146.895 663.049 144.253 656.485 140.764 649.941 137.287 643.178 132.889 634.034 130.878L633.604 132.831zM678.552 147.805C685.091 147.008 690.108 143.723 694.243 139.337 698.358 134.971 701.644 129.466 704.718 124.165 707.82 118.816 710.692 113.704 714.024 109.907 717.332 106.137 720.977 103.798 725.6 103.798v-2C720.185 101.798 716.037 104.58 712.521 108.587 709.029 112.567 706.047 117.888 702.988 123.162 699.902 128.483 696.721 133.792 692.787 137.965 688.873 142.117 684.259 145.095 678.31 145.82L678.552 147.805zM725.6 103.798C727.775 103.798 729.455 104.697 730.855 106.371 732.289 108.085 733.42 110.606 734.375 113.783 736.293 120.165 737.371 128.673 739.062 137.556 740.737 146.354 743.005 155.433 747.326 162.611 751.678 169.84 758.128 175.162 768.076 176.34L768.311 174.353C759.083 173.261 753.132 168.378 749.039 161.579 744.916 154.729 742.697 145.954 741.027 137.182 739.373 128.497 738.248 119.719 736.29 113.207 735.307 109.938 734.081 107.11 732.389 105.087 730.662 103.024 728.445 101.798 725.6 101.798v2zM906.408 221.881C913.822 221.242 919.905 219.481 925.276 216.361 930.642 213.243 935.24 208.803 939.733 202.89L938.14 201.68C933.753 207.455 929.343 211.685 924.271 214.631 919.205 217.574 913.42 219.269 906.237 219.888L906.408 221.881zM768.076 176.34C772.214 176.83 776.251 178.919 780.35 181.638 782.394 182.993 784.424 184.485 786.476 185.988 788.521 187.486 790.586 188.996 792.669 190.358 796.819 193.074 801.15 195.285 805.722 195.675 810.355 196.07 815.095 194.585 820.017 190.204L818.687 188.71C814.111 192.784 809.896 194.023 805.892 193.682 801.828 193.336 797.839 191.351 793.764 188.684 791.733 187.356 789.708 185.877 787.658 184.375 785.615 182.878 783.546 181.357 781.456 179.971 777.289 177.207 772.929 174.9 768.311 174.353L768.076 176.34zM820.017 190.204C822.544 187.954 824.367 185.275 825.879 182.567 826.635 181.214 827.317 179.843 827.969 178.513 828.625 177.175 829.245 175.887 829.891 174.66 831.185 172.202 832.526 170.11 834.269 168.604 835.981 167.125 838.127 166.173 841.124 166.084L841.065 164.085C837.617 164.188 835.028 165.305 832.961 167.09 830.926 168.848 829.445 171.215 828.121 173.728 827.458 174.988 826.82 176.314 826.173 177.633 825.523 178.959 824.86 180.289 824.133 181.592 822.678 184.199 820.983 186.666 818.687 188.71L820.017 190.204zM841.124 166.084C844.22 165.992 846.212 166.791 847.653 168.086 849.136 169.417 850.144 171.364 851.072 173.787 851.533 174.992 851.961 176.277 852.423 177.635 852.882 178.984 853.371 180.395 853.943 181.812 855.088 184.648 856.579 187.543 858.896 190.125L860.384 188.789C858.281 186.445 856.895 183.783 855.798 181.063 855.248 179.703 854.775 178.337 854.317 176.991 853.862 175.653 853.418 174.322 852.939 173.072 851.987 170.583 850.841 168.26 848.989 166.597 847.097 164.898 844.573 163.98 841.065 164.085L841.124 166.084zM858.896 190.125C863.361 195.101 867.114 199.637 870.643 203.692 874.154 207.726 877.423 211.26 880.839 214.115 887.733 219.879 895.194 222.848 906.408 221.881L906.237 219.888C895.575 220.808 888.631 218.023 882.121 212.58 878.834 209.832 875.651 206.4 872.152 202.379 868.671 198.38 864.855 193.772 860.384 188.789L858.896 190.125zM939.733 202.89C944.874 196.121 951.489 186.107 958.808 174.932 966.135 163.743 974.18 151.37 982.203 139.84 990.23 128.304 998.212 117.648 1005.41 109.884 1009.01 106 1012.38 102.87 1015.44 100.717 1018.53 98.5483 1021.18 97.4564 1023.35 97.4564v-2C1020.56 95.4564 1017.5 96.8298 1014.29 99.0807 1011.07 101.347 1007.59 104.59 1003.94 108.524 996.647 116.394 988.601 127.144 980.561 138.698 972.518 150.257 964.455 162.658 957.134 173.837 949.804 185.03 943.23 194.979 938.14 201.68L939.733 202.89zM1023.35 97.4564C1024.14 97.4564 1025.13 97.7716 1026.35 98.4951 1027.55 99.2126 1028.9 100.288 1030.38 101.698 1033.34 104.518 1036.71 108.583 1040.35 113.524 1047.62 123.401 1055.87 136.647 1063.89 150.095 1067.9 156.815 1071.84 163.579 1075.57 169.99 1079.3 176.399 1082.82 182.458 1085.97 187.761 1089.12 193.062 1091.91 197.623 1094.19 201.033 1095.32 202.737 1096.34 204.168 1097.22 205.266 1098.07 206.334 1098.86 207.182 1099.55 207.619L1100.62 205.93C1100.24 205.689 1099.63 205.082 1098.78 204.018 1097.96 202.984 1096.97 201.606 1095.85 199.923 1093.61 196.559 1090.84 192.036 1087.69 186.74 1084.54 181.447 1081.03 175.397 1077.3 168.984 1073.57 162.573 1069.62 155.801 1065.61 149.071 1057.59 135.617 1049.29 122.299 1041.96 112.338 1038.29 107.361 1034.84 103.189 1031.76 100.251 1030.22 98.7819 1028.75 97.5981 1027.37 96.7765 1026 95.9607 1024.64 95.4564 1023.35 95.4564v2zM1099.55 207.619C1100.26 208.069 1100.69 208.576 1100.93 209.112 1101.16 209.651 1101.24 210.295 1101.14 211.069 1100.91 212.654 1099.92 214.641 1098.24 216.938 1094.89 221.506 1089.12 226.866 1082.86 232.013 1076.62 237.146 1069.94 242.016 1064.83 245.606 1062.27 247.4 1060.1 248.873 1058.58 249.896 1057.81 250.408 1057.21 250.807 1056.8 251.078 1056.59 251.214 1056.43 251.318 1056.33 251.387 1056.28 251.422 1056.23 251.448 1056.21 251.465 1056.19 251.474 1056.18 251.481 1056.18 251.485 1056.17 251.487 1056.17 251.489 1056.17 251.49 1056.17 251.49 1056.17 251.491 1056.17 251.491c0 0 0 0 .5399999999999636.8389999999999986C1057.26 253.17 1057.26 253.169 1057.26 253.169 1057.26 253.169 1057.26 253.168 1057.26 253.168 1057.26 253.166 1057.26 253.165 1057.27 253.162 1057.27 253.158 1057.28 253.151 1057.3 253.142 1057.33 253.124 1057.37 253.097 1057.42 253.061 1057.53 252.991 1057.69 252.886 1057.9 252.749 1058.31 252.475 1058.92 252.072 1059.69 251.557 1061.23 250.527 1063.4 249.047 1065.98 247.243 1071.11 243.638 1077.83 238.736 1084.13 233.558 1090.41 228.394 1096.34 222.903 1099.85 218.121 1101.6 215.744 1102.83 213.43 1103.12 211.346 1103.27 210.284 1103.17 209.251 1102.75 208.302 1102.33 207.35 1101.61 206.557 1100.62 205.93L1099.55 207.619zM1056.22 251.463 1022.85 270.577 1023.85 272.312 1057.21 253.198 1056.22 251.463zM1023.35 270.444H281.717v2H1023.35v-2zm-741.633.0H-10.8688v2H281.717v-2zM-9.86884 271.444v-36.09H-11.8688v36.09H-9.86884z" fill="#44aa81"/></g><path d="M265.304-14.178v3e2z" stroke="#949cba" stroke-opacity=".5"/><g filter="url(#filter2_d)"><path d="M278.513 141.502C278.513 148.405 272.933 154.002 266.05 154.002 259.167 154.002 253.587 148.405 253.587 141.502 253.587 134.598 259.167 129.002 266.05 129.002 272.933 129.002 278.513 134.598 278.513 141.502z" fill="#fff" fill-opacity=".65"/></g><path d="M271.641 141.587C271.641 144.629 269.184 147.087 266.162 147.087 263.14 147.087 260.682 144.629 260.682 141.587 260.682 138.545 263.14 136.087 266.162 136.087 269.184 136.087 271.641 138.545 271.641 141.587z" fill="#fff" stroke="#44aa81" stroke-width="3"/><g filter="url(#filter3_d)"><rect x="288.146" y="128.438" width="65.8049" height="24" rx="6" fill="#fff" fill-opacity=".8"/></g><path d="M302.247 144.438V137.85L300.783 138.21 300.399 136.698 302.811 135.978H304.071V144.438H302.247zM308.917 144.582C307.877 144.582 306.957 144.25 306.157 143.586L307.129 142.182C307.729 142.662 308.341 142.902 308.965 142.902 309.461 142.902 309.853 142.73 310.141 142.386 310.429 142.042 310.605 141.578 310.669 140.994 310.221 141.378 309.653 141.57 308.965 141.57 308.045 141.57 307.313 141.33 306.769 140.85 306.233 140.362 305.965 139.69 305.965 138.834 305.965 137.986 306.261 137.286 306.853 136.734 307.453 136.174 308.225 135.894 309.169 135.894 309.721 135.894 310.181 135.966 310.549 136.11 310.925 136.254 311.273 136.486 311.593 136.806 312.257 137.47 312.589 138.534 312.589 139.998 312.589 141.39 312.269 142.502 311.629 143.334 310.989 144.166 310.085 144.582 308.917 144.582zM308.197 139.686C308.461 139.918 308.817 140.034 309.265 140.034 309.713 140.034 310.065 139.918 310.321 139.686 310.577 139.446 310.705 139.138 310.705 138.762 310.705 138.386 310.573 138.078 310.309 137.838 310.045 137.598 309.685 137.478 309.229 137.478 308.781 137.478 308.429 137.598 308.173 137.838 307.925 138.07 307.801 138.382 307.801 138.774 307.801 139.15 307.933 139.454 308.197 139.686zM320.426 143.346C319.73 144.17 318.83 144.582 317.726 144.582 316.622 144.582 315.726 144.17 315.038 143.346 314.35 142.522 314.006 141.486 314.006 140.238 314.006 138.998 314.354 137.966 315.05 137.142 315.746 136.31 316.646 135.894 317.75 135.894 318.846 135.894 319.738 136.306 320.426 137.13 321.122 137.954 321.47 138.99 321.47 140.238 321.47 141.478 321.122 142.514 320.426 143.346zM316.406 142.158C316.75 142.662 317.198 142.914 317.75 142.914 318.302 142.914 318.742 142.666 319.07 142.17 319.406 141.666 319.574 141.022 319.574 140.238 319.574 139.47 319.402 138.834 319.058 138.33 318.714 137.818 318.27 137.562 317.726 137.562 317.182 137.562 316.742 137.814 316.406 138.318 316.07 138.814 315.902 139.454 315.902 140.238 315.902 141.014 316.07 141.654 316.406 142.158zM329.312 143.346C328.616 144.17 327.716 144.582 326.612 144.582 325.508 144.582 324.612 144.17 323.924 143.346 323.236 142.522 322.892 141.486 322.892 140.238 322.892 138.998 323.24 137.966 323.936 137.142 324.632 136.31 325.532 135.894 326.636 135.894 327.732 135.894 328.624 136.306 329.312 137.13 330.008 137.954 330.356 138.99 330.356 140.238 330.356 141.478 330.008 142.514 329.312 143.346zM325.292 142.158C325.636 142.662 326.084 142.914 326.636 142.914 327.188 142.914 327.628 142.666 327.956 142.17 328.292 141.666 328.46 141.022 328.46 140.238 328.46 139.47 328.288 138.834 327.944 138.33 327.6 137.818 327.156 137.562 326.612 137.562 326.068 137.562 325.628 137.814 325.292 138.318 324.956 138.814 324.788 139.454 324.788 140.238 324.788 141.014 324.956 141.654 325.292 142.158zM335.855 144.438V136.038H339.287C340.279 136.038 341.063 136.306 341.639 136.842 342.215 137.378 342.503 138.086 342.503 138.966 342.503 139.902 342.183 140.63 341.543 141.15 340.903 141.662 340.091 141.918 339.107 141.918H337.703V144.438H335.855zM337.703 140.274H339.167C339.623 140.274 339.979 140.154 340.235 139.914 340.499 139.674 340.631 139.362 340.631 138.978 340.631 138.57 340.499 138.258 340.235 138.042 339.971 137.818 339.603 137.706 339.131 137.706H337.703V140.274z" fill="#44aa81"/><g filter="url(#filter4_d)"><path d="M277.926 234.063C277.926 240.967 272.346 246.563 265.463 246.563 258.58 246.563 253 240.967 253 234.063 253 227.16 258.58 221.563 265.463 221.563 272.346 221.563 277.926 227.16 277.926 234.063z" fill="#fff" fill-opacity=".65"/></g><path d="M271.054 234.149C271.054 237.191 268.597 239.649 265.575 239.649 262.553 239.649 260.095 237.191 260.095 234.149 260.095 231.107 262.553 228.649 265.575 228.649 268.597 228.649 271.054 231.107 271.054 234.149z" fill="#fff" stroke="#2a37f9" stroke-width="3"/><g filter="url(#filter5_d)"><rect x="287.559" y="221" width="65.8049" height="24" rx="6" fill="#fff" fill-opacity=".8"/></g><path d="M311.619 237V230.412L310.155 230.772 309.771 229.26 312.183 228.54H313.443V237H311.619zM321.733 235.908C321.037 236.732 320.137 237.144 319.033 237.144 317.929 237.144 317.033 236.732 316.345 235.908 315.657 235.084 315.313 234.048 315.313 232.8 315.313 231.56 315.661 230.528 316.357 229.704 317.053 228.872 317.953 228.456 319.057 228.456 320.153 228.456 321.045 228.868 321.733 229.692 322.429 230.516 322.777 231.552 322.777 232.8 322.777 234.04 322.429 235.076 321.733 235.908zM317.713 234.72C318.057 235.224 318.505 235.476 319.057 235.476 319.609 235.476 320.049 235.228 320.377 234.732 320.713 234.228 320.881 233.584 320.881 232.8 320.881 232.032 320.709 231.396 320.365 230.892 320.021 230.38 319.577 230.124 319.033 230.124 318.489 230.124 318.049 230.376 317.713 230.88 317.377 231.376 317.209 232.016 317.209 232.8 317.209 233.576 317.377 234.216 317.713 234.72zM330.619 235.908C329.923 236.732 329.023 237.144 327.919 237.144 326.815 237.144 325.919 236.732 325.231 235.908 324.543 235.084 324.199 234.048 324.199 232.8 324.199 231.56 324.547 230.528 325.243 229.704 325.939 228.872 326.839 228.456 327.943 228.456 329.039 228.456 329.931 228.868 330.619 229.692 331.315 230.516 331.663 231.552 331.663 232.8 331.663 234.04 331.315 235.076 330.619 235.908zM326.599 234.72C326.943 235.224 327.391 235.476 327.943 235.476 328.495 235.476 328.935 235.228 329.263 234.732 329.599 234.228 329.767 233.584 329.767 232.8 329.767 232.032 329.595 231.396 329.251 230.892 328.907 230.38 328.463 230.124 327.919 230.124 327.375 230.124 326.935 230.376 326.599 230.88 326.263 231.376 326.095 232.016 326.095 232.8 326.095 233.576 326.263 234.216 326.599 234.72z" fill="#2a37fa"/></g><defs><filter id="filter0_d" x="-17.8622" y="81.1924" width="1110.42" height="251.914" filterUnits="userSpaceOnUse" color-interpolation-filters="sRGB"><feFlood flood-opacity="0" result="BackgroundImageFix"/><feColorMatrix in="SourceAlpha" type="matrix" values="0 0 0 0 0 0 0 0 0 0 0 0 0 0 0 0 0 0 127 0"/><feOffset dy="2"/><feGaussianBlur stdDeviation="2.5"/><feColorMatrix type="matrix" values="0 0 0 0 0.160784 0 0 0 0 0.192157 0 0 0 0 1 0 0 0 0.15 0"/><feBlend mode="normal" in2="BackgroundImageFix" result="effect1_dropShadow"/><feBlend mode="normal" in="SourceGraphic" in2="effect1_dropShadow" result="shape"/></filter><filter id="filter1_d" x="-16.8688" y="52.8435" width="1125.05" height="226.601" filterUnits="userSpaceOnUse" color-interpolation-filters="sRGB"><feFlood flood-opacity="0" result="BackgroundImageFix"/><feColorMatrix in="SourceAlpha" type="matrix" values="0 0 0 0 0 0 0 0 0 0 0 0 0 0 0 0 0 0 127 0"/><feOffset dy="2"/><feGaussianBlur stdDeviation="2.5"/><feColorMatrix type="matrix" values="0 0 0 0 0.266667 0 0 0 0 0.666667 0 0 0 0 0.505882 0 0 0 0.15 0"/><feBlend mode="normal" in2="BackgroundImageFix" result="effect1_dropShadow"/><feBlend mode="normal" in="SourceGraphic" in2="effect1_dropShadow" result="shape"/></filter><filter id="filter2_d" x="243.587" y="119.002" width="44.9261" height="45" filterUnits="userSpaceOnUse" color-interpolation-filters="sRGB"><feFlood flood-opacity="0" result="BackgroundImageFix"/><feColorMatrix in="SourceAlpha" type="matrix" values="0 0 0 0 0 0 0 0 0 0 0 0 0 0 0 0 0 0 127 0"/><feOffset/><feGaussianBlur stdDeviation="5"/><feColorMatrix type="matrix" values="0 0 0 0 0.266667 0 0 0 0 0.666667 0 0 0 0 0.505882 0 0 0 0.4 0"/><feBlend mode="normal" in2="BackgroundImageFix" result="effect1_dropShadow"/><feBlend mode="normal" in="SourceGraphic" in2="effect1_dropShadow" result="shape"/></filter><filter id="filter3_d" x="278.146" y="118.438" width="85.8049" height="44" filterUnits="userSpaceOnUse" color-interpolation-filters="sRGB"><feFlood flood-opacity="0" result="BackgroundImageFix"/><feColorMatrix in="SourceAlpha" type="matrix" values="0 0 0 0 0 0 0 0 0 0 0 0 0 0 0 0 0 0 127 0"/><feOffset/><feGaussianBlur stdDeviation="5"/><feColorMatrix type="matrix" values="0 0 0 0 0.266667 0 0 0 0 0.666667 0 0 0 0 0.505882 0 0 0 0.35 0"/><feBlend mode="normal" in2="BackgroundImageFix" result="effect1_dropShadow"/><feBlend mode="normal" in="SourceGraphic" in2="effect1_dropShadow" result="shape"/></filter><filter id="filter4_d" x="243" y="211.563" width="44.9261" height="45" filterUnits="userSpaceOnUse" color-interpolation-filters="sRGB"><feFlood flood-opacity="0" result="BackgroundImageFix"/><feColorMatrix in="SourceAlpha" type="matrix" values="0 0 0 0 0 0 0 0 0 0 0 0 0 0 0 0 0 0 127 0"/><feOffset/><feGaussianBlur stdDeviation="5"/><feColorMatrix type="matrix" values="0 0 0 0 0.266667 0 0 0 0 0.666667 0 0 0 0 0.505882 0 0 0 0.4 0"/><feBlend mode="normal" in2="BackgroundImageFix" result="effect1_dropShadow"/><feBlend mode="normal" in="SourceGraphic" in2="effect1_dropShadow" result="shape"/></filter><filter id="filter5_d" x="277.559" y="211" width="85.8049" height="44" filterUnits="userSpaceOnUse" color-interpolation-filters="sRGB"><feFlood flood-opacity="0" result="BackgroundImageFix"/><feColorMatrix in="SourceAlpha" type="matrix" values="0 0 0 0 0 0 0 0 0 0 0 0 0 0 0 0 0 0 127 0"/><feOffset/><feGaussianBlur stdDeviation="5"/><feColorMatrix type="matrix" values="0 0 0 0 0.266667 0 0 0 0 0.666667 0 0 0 0 0.505882 0 0 0 0.35 0"/><feBlend mode="normal" in2="BackgroundImageFix" result="effect1_dropShadow"/><feBlend mode="normal" in="SourceGraphic" in2="effect1_dropShadow" result="shape"/></filter><linearGradient id="paint0_linear" x1="340.065" y1="85.8206" x2="339.855" y2="331.711" gradientUnits="userSpaceOnUse"><stop stop-color="#2931ff"/><stop offset="1" stop-color="#109cf1" stop-opacity="0"/></linearGradient><linearGradient id="paint1_linear" x1="326.789" y1="56.9333" x2="326.646" y2="263.053" gradientUnits="userSpaceOnUse"><stop stop-color="#44aa81"/><stop offset="1" stop-color="#44aa81" stop-opacity="0"/></linearGradient></defs></svg>