<svg width="1012" height="211" viewBox="0 0 1012 211" fill="none" xmlns="http://www.w3.org/2000/svg"><g opacity=".2"><path d="M54.4213 123.432C24.9749 122.562-3.02673 163.411-10.6049 180.444v36.09H281.981 1023.61L1056.98 197.42C1056.98 197.42 1113.95 160.486 1100.35 151.864 1091.81 146.444 1040.24 41.5462 1023.61 41.5462 1003.79 41.5462 959.664 120.436 939.2 147.374 930.321 159.063 921.184 164.715 906.586 165.975 884.71 167.861 877.777 154.465 859.904 134.547 851.065 124.696 854.566 109.781 841.359 110.174 828.466 110.558 829.262 125.959 819.616 134.547 800.62 151.458 785.969 122.51 768.457 120.436 730.108 115.895 745.941 47.8878 725.864 47.8878 705.787 47.8878 703.672 88.8572 678.695 91.9024 660.46 94.1258 652.027 80.8912 634.083 76.9441 615.122 72.7731 601.962 80.6002 584.64 71.8127 572.155 65.479 565.294 47.8878 557.91 47.8878 550.525 47.8878 545.106 63.3763 536.415 71.8127 527.723 80.249 473.604 99.4772 448.358 76.9441 429.826 60.4034 439.591 1.86563 420.454 1.93341 401.317 2.00119 409.198 62.4467 388.628 76.9441 358.874 97.9147 304.96 69.4441 295.839 69.0706 275.27 69.0706 244.596 111.834 230.883 134.304 219.624 154.308 205.262 158.585 199.488 158.222 172.64 159.092 152.215 114.371 145.359 91.9024 139.296 66.6786 132.471 61.4603 129.12 61.4604 123.498 61.4441 115.046 68.8534 106.386 94.0768 97.7249 119.3 84.0121 126.331 78.2383 126.693 70.1624 127.2 60.556 123.432 54.4213 123.432z" fill="url(#paint0_linear)"/><path d="M-10.6049 180.444-11.5185 180.038C-11.5754 180.166-11.6049 180.304-11.6049 180.444h1zM54.4213 123.432 54.3918 124.432C54.4016 124.432 54.4115 124.432 54.4213 124.432v-1zM78.2383 126.693 78.1756 125.695 78.2383 126.693zM129.12 61.4604 129.117 62.4604H129.12v-1zM145.359 91.9024 144.387 92.1361C144.391 92.1556 144.397 92.175 144.402 92.1943L145.359 91.9024zM199.488 158.222 199.551 157.224C199.519 157.222 199.488 157.222 199.456 157.223L199.488 158.222zM230.883 134.304 230.03 133.783C230.024 133.793 230.018 133.803 230.012 133.813L230.883 134.304zM295.839 69.0706 295.88 68.0714C295.866 68.0709 295.852 68.0706 295.839 68.0706v1zM388.628 76.9441 389.204 77.7615 388.628 76.9441zM420.454 1.93341 420.45.933415 420.454 1.93341zM448.358 76.9441 447.692 77.6902 448.358 76.9441zM536.415 71.8127 537.111 72.5302 536.415 71.8127zM584.64 71.8127 584.188 72.7045 584.64 71.8127zM634.083 76.9441 633.868 77.9207 634.083 76.9441zM678.695 91.9024 678.816 92.8951 678.695 91.9024zM768.457 120.436 768.339 121.429 768.457 120.436zM906.586 165.975 906.672 166.971 906.586 165.975zM939.2 147.374 939.997 147.979 939.2 147.374zM819.616 134.547 820.281 135.294 819.616 134.547zM841.359 110.174 841.329 109.175 841.359 110.174zM859.904 134.547 860.648 133.879 859.904 134.547zM1100.35 151.864 1100.89 151.02 1100.35 151.864zM1056.98 197.42 1057.47 198.288C1057.49 198.279 1057.5 198.269 1057.52 198.259L1056.98 197.42zM1023.61 216.534v1C1023.79 217.534 1023.96 217.488 1024.11 217.402L1023.61 216.534zm-1034.2149.0h-1c0 .5520000000000209.44780000000000086 1 1 1v-1zM-9.6912 180.851C-5.9484 172.438 2.88274 158.063 14.4324 145.914 26.0181 133.726 40.1173 124.01 54.3918 124.432L54.4508 122.433C39.2789 121.984 24.654 132.258 12.9828 144.536 1.27554 156.851-7.68319 171.417-11.5185 180.038L-9.6912 180.851zm64.1125-56.419C57.3545 124.432 61.1472 125.338 65.396 126.231 69.5673 127.109 74.1109 127.954 78.3009 127.691L78.1756 125.695C74.2898 125.939 69.9922 125.154 65.8077 124.274 61.7006 123.41 57.6228 122.432 54.4213 122.432v2zM78.3009 127.691C84.6352 127.294 98.5994 119.833 107.331 94.4016L105.44 93.7521C96.8504 118.768 83.389 125.368 78.1756 125.695L78.3009 127.691zM107.331 94.4016C111.644 81.842 115.878 73.7992 119.681 68.9183 123.501 64.0149 126.761 62.4535 129.117 62.4604L129.123 60.4604C125.857 60.4509 122.079 62.5861 118.103 67.6891 114.11 72.8146 109.788 81.0882 105.44 93.7521L107.331 94.4016zM129.12 62.4604C130.279 62.4604 132.561 63.4018 135.383 67.7655 138.179 72.0885 141.368 79.5762 144.387 92.1361L146.331 91.6687C143.287 79.0048 140.032 71.2714 137.062 66.6793 134.119 62.128 131.312 60.4603 129.12 60.4604v2zM144.402 92.1943C147.85 103.494 154.707 120.388 164.096 134.372 168.791 141.364 174.147 147.671 180.062 152.182 185.981 156.696 192.512 159.449 199.521 159.222L199.456 157.223C193.041 157.431 186.95 154.92 181.275 150.591 175.595 146.26 170.381 140.145 165.757 133.257 156.507 119.481 149.724 102.78 146.315 91.6105L144.402 92.1943zM199.426 159.22C205.664 159.612 220.352 155.055 231.755 134.794L230.012 133.813C218.897 153.561 204.86 157.558 199.551 157.224L199.426 159.22zM231.737 134.825C238.575 123.621 249.637 107.365 261.539 93.9241 267.491 87.2021 273.628 81.2128 279.529 76.9117 285.456 72.5921 291.016 70.0706 295.839 70.0706v-2C290.377 68.0706 284.389 70.8946 278.351 75.2954 272.288 79.7147 266.043 85.8206 260.041 92.5982 248.036 106.156 236.905 122.517 230.03 133.783L231.737 134.825zM295.798 70.0698C296.78 70.11 298.492 70.5482 300.918 71.3283 303.306 72.0961 306.258 73.1503 309.669 74.3507 316.473 76.7455 325.036 79.6981 334.255 81.982 352.615 86.5305 373.935 88.5228 389.204 77.7615L388.052 76.1267C373.567 86.336 353.052 84.5783 334.736 80.0407 325.618 77.7817 317.132 74.8572 310.333 72.4641 306.941 71.2705 303.952 70.203 301.53 69.4243 299.146 68.6578 297.178 68.1246 295.88 68.0714L295.798 70.0698zM389.204 77.7615C394.623 73.9424 398.071 67.1806 400.54 59.4204 403.018 51.6372 404.57 42.648 406.063 34.2017 407.565 25.7054 409.002 17.7967 411.233 12.0032 413.485 6.15795 416.349 2.94795 420.457 2.9334L420.45.933415C414.989.952756 411.663 5.32386 409.367 11.2843 407.051 17.2964 405.585 25.4178 404.093 33.8536 402.593 42.3394 401.063 51.184 398.635 58.8138 396.199 66.4667 392.918 72.6971 388.052 76.1267L389.204 77.7615zM420.457 2.9334C424.561 2.91887 427.305 5.98421 429.34 11.6379 431.363 17.256 432.504 24.9714 433.642 33.3452 434.772 41.6682 435.895 50.6013 437.902 58.4828 439.903 66.342 442.828 73.3486 447.692 77.6902L449.024 76.198C444.622 72.2692 441.818 65.7559 439.84 57.9893 437.868 50.245 436.761 41.4466 435.624 33.076 434.494 24.7563 433.33 16.816 431.222 10.9605 429.127 5.14053 425.915.914058 420.45.933415L420.457 2.9334zM447.692 77.6902C460.674 89.2767 480.923 90.0342 498.763 86.9776 507.721 85.4428 516.155 82.9331 522.906 80.2726 529.61 77.6303 534.785 74.7879 537.111 72.5302L535.718 71.0951C533.698 73.0556 528.849 75.7803 522.172 78.4119 515.542 81.0252 507.24 83.4961 498.425 85.0063 480.721 88.0396 461.289 87.1446 449.024 76.198L447.692 77.6902zM537.111 72.5302C541.553 68.2189 545.173 62.0902 548.478 57.2505 550.156 54.7935 551.746 52.6718 553.344 51.1678 554.944 49.6605 556.432 48.8878 557.91 48.8878v-2C555.695 46.8878 553.736 48.0512 551.973 49.7116 550.206 51.3753 548.513 53.6531 546.827 56.1227 543.403 61.1363 539.968 66.97 535.718 71.0951L537.111 72.5302zM557.91 48.8878C559.359 48.8878 560.931 49.7593 562.764 51.4671 564.578 53.1571 566.471 55.4919 568.585 58.1041 572.753 63.2561 577.72 69.4235 584.188 72.7045L585.092 70.9208C579.075 67.8682 574.369 62.0732 570.139 56.8461 568.054 54.2689 566.066 51.81 564.127 50.0037 562.207 48.2152 560.152 46.8878 557.91 46.8878v2zM584.188 72.7045C593.077 77.2143 600.904 77.4482 608.79 77.1087 616.689 76.7685 624.549 75.8708 633.868 77.9207L634.298 75.9675C624.656 73.8464 616.455 74.7767 608.704 75.1105 600.939 75.4449 593.525 75.1986 585.092 70.9208L584.188 72.7045zM633.868 77.9207C642.667 79.8563 649.093 84.0498 655.81 87.6202 662.507 91.1796 669.396 94.0436 678.816 92.8951L678.574 90.9097C669.759 91.9846 663.313 89.343 656.749 85.8542 650.205 82.3764 643.442 77.979 634.298 75.9675L633.868 77.9207zM678.816 92.8951C685.355 92.0978 690.372 88.8125 694.507 84.4264 698.622 80.0611 701.908 74.5563 704.982 69.2548 708.084 63.9059 710.956 58.7937 714.288 54.9964 717.596 51.2266 721.241 48.8878 725.864 48.8878v-2C720.448 46.8878 716.301 49.6703 712.785 53.6773 709.293 57.657 706.31 62.9775 703.252 68.2515 700.166 73.573 696.985 78.8815 693.051 83.0545 689.137 87.2066 684.523 90.1844 678.574 90.9097L678.816 92.8951zm47.048-44.0073C728.038 48.8878 729.719 49.7873 731.119 51.4606 732.553 53.1745 733.683 55.6955 734.639 58.8729 736.557 65.2547 737.635 73.7624 739.326 82.6462 741.001 91.4436 743.269 100.523 747.59 107.701 751.942 114.93 758.392 120.252 768.339 121.429L768.575 119.443C759.347 118.351 753.396 113.468 749.303 106.669 745.18 99.8184 742.961 91.0443 741.291 82.2722 739.637 73.5865 738.512 64.8085 736.554 58.297 735.571 55.0277 734.345 52.2002 732.653 50.1772 730.926 48.1136 728.709 46.8878 725.864 46.8878v2zM906.672 166.971C914.086 166.331 920.169 164.57 925.54 161.45 930.906 158.333 935.504 153.893 939.997 147.979L938.404 146.77C934.017 152.545 929.607 156.775 924.535 159.721 919.469 162.664 913.684 164.359 906.5 164.978L906.672 166.971zM768.339 121.429C772.477 121.919 776.515 124.009 780.614 126.728 782.658 128.083 784.688 129.574 786.74 131.078 788.785 132.576 790.85 134.086 792.933 135.448 797.083 138.163 801.414 140.375 805.986 140.765 810.619 141.16 815.359 139.675 820.281 135.294L818.951 133.8C814.375 137.874 810.16 139.113 806.156 138.772 802.092 138.425 798.103 136.441 794.028 133.774 791.997 132.445 789.972 130.967 787.922 129.465 785.879 127.968 783.81 126.447 781.72 125.061 777.553 122.297 773.193 119.99 768.575 119.443L768.339 121.429zM820.281 135.294C822.808 133.044 824.631 130.365 826.143 127.657 826.899 126.303 827.581 124.933 828.233 123.603 828.889 122.265 829.509 120.976 830.155 119.75 831.449 117.292 832.79 115.199 834.533 113.693 836.245 112.215 838.391 111.263 841.388 111.174L841.329 109.175C837.881 109.277 835.292 110.395 833.225 112.18 831.19 113.938 829.709 116.305 828.385 118.818 827.722 120.078 827.084 121.403 826.437 122.723 825.787 124.049 825.124 125.378 824.397 126.682 822.942 129.289 821.247 131.756 818.951 133.8L820.281 135.294zM841.388 111.174C844.484 111.082 846.476 111.881 847.917 113.175 849.4 114.507 850.408 116.454 851.336 118.877 851.797 120.082 852.225 121.367 852.687 122.725 853.146 124.074 853.635 125.485 854.207 126.902 855.352 129.738 856.843 132.633 859.16 135.215L860.648 133.879C858.545 131.535 857.159 128.872 856.062 126.153 855.512 124.793 855.039 123.427 854.581 122.081 854.126 120.743 853.682 119.412 853.203 118.162 852.25 115.673 851.105 113.35 849.253 111.687 847.361 109.988 844.837 109.07 841.329 109.175L841.388 111.174zM859.16 135.215C863.625 140.191 867.378 144.727 870.907 148.782 874.419 152.816 877.687 156.35 881.102 159.205 887.997 164.969 895.458 167.938 906.672 166.971L906.5 164.978C895.839 165.898 888.895 163.112 882.385 157.67 879.098 154.922 875.915 151.49 872.416 147.469 868.935 143.47 865.119 138.862 860.648 133.879L859.16 135.215zM939.997 147.979C945.138 141.211 951.753 131.197 959.072 120.022 966.399 108.833 974.443 96.4603 982.467 84.9298 990.494 73.3939 998.476 62.7375 1005.67 54.9735 1009.27 51.0903 1012.65 47.9597 1015.71 45.8068 1018.79 43.6381 1021.44 42.5462 1023.61 42.5462v-2C1020.83 40.5462 1017.76 41.9196 1014.56 44.1706 1011.33 46.4371 1007.85 49.6803 1004.2 53.614 996.911 61.4837 988.865 72.2335 980.825 83.7874 972.782 95.3466 964.719 107.747 957.398 118.926 950.068 130.12 943.494 140.069 938.404 146.77L939.997 147.979zM1023.61 42.5462C1024.4 42.5462 1025.39 42.8615 1026.61 43.5849 1027.81 44.3025 1029.16 45.3777 1030.64 46.7877 1033.6 49.6077 1036.97 53.6728 1040.61 58.6143 1047.89 68.4912 1056.14 81.7369 1064.15 95.1848 1068.16 101.905 1072.1 108.669 1075.83 115.08 1079.56 121.489 1083.08 127.548 1086.23 132.851 1089.38 138.152 1092.17 142.713 1094.45 146.123 1095.59 147.827 1096.61 149.258 1097.48 150.356 1098.34 151.424 1099.13 152.272 1099.82 152.709L1100.89 151.02C1100.51 150.779 1099.89 150.172 1099.05 149.108 1098.22 148.074 1097.24 146.696 1096.11 145.013 1093.87 141.649 1091.1 137.125 1087.95 131.83 1084.81 126.536 1081.3 120.487 1077.56 114.074 1073.83 107.663 1069.88 100.891 1065.87 94.1607 1057.85 80.7066 1049.56 67.3891 1042.22 57.4282 1038.55 52.4509 1035.1 48.2784 1032.02 45.3406 1030.48 43.8718 1029.01 42.688 1027.63 41.8663 1026.26 41.0505 1024.9 40.5462 1023.61 40.5462v2zM1099.82 152.709C1100.53 153.159 1100.95 153.666 1101.19 154.201 1101.43 154.741 1101.51 155.385 1101.4 156.158 1101.18 157.744 1100.19 159.731 1098.5 162.028 1095.15 166.596 1089.39 171.955 1083.13 177.103 1076.88 182.236 1070.21 187.106 1065.09 190.696 1062.53 192.49 1060.37 193.962 1058.84 194.986 1058.08 195.498 1057.47 195.897 1057.06 196.168 1056.86 196.304 1056.7 196.407 1056.59 196.477 1056.54 196.512 1056.5 196.538 1056.47 196.555 1056.46 196.564 1056.45 196.571 1056.44 196.575 1056.44 196.577 1056.44 196.579 1056.43 196.58 1056.43 196.58 1056.43 196.581 1056.43 196.581c0 0 0 0 .5499999999999545.8389999999999986C1057.52 198.259 1057.52 198.259 1057.52 198.259 1057.52 198.259 1057.52 198.258 1057.52 198.257 1057.53 198.256 1057.53 198.255 1057.53 198.252 1057.54 198.248 1057.55 198.241 1057.56 198.232 1057.59 198.214 1057.63 198.187 1057.69 198.151 1057.79 198.08 1057.95 197.976 1058.16 197.839 1058.58 197.565 1059.19 197.162 1059.95 196.647 1061.49 195.617 1063.67 194.137 1066.24 192.333 1071.38 188.728 1078.1 183.826 1084.4 178.648 1090.68 173.484 1096.61 167.993 1100.12 163.211 1101.86 160.833 1103.09 158.52 1103.38 156.436 1103.53 155.374 1103.44 154.34 1103.02 153.392 1102.6 152.439 1101.88 151.647 1100.89 151.02L1099.82 152.709zM1056.48 196.553 1023.12 215.666 1024.11 217.402 1057.47 198.288 1056.48 196.553zM1023.61 215.534H281.981v2H1023.61v-2zm-741.629.0H-10.6049v2H281.981v-2zM-9.60486 216.534v-36.09H-11.6049v36.09H-9.60486z" fill="#44aa81"/></g><defs><linearGradient id="paint0_linear" x1="326.789" y1="1.93335" x2="326.646" y2="208.053" gradientUnits="userSpaceOnUse"><stop stop-color="#44aa81"/><stop offset="1" stop-color="#44aa81" stop-opacity="0"/></linearGradient></defs></svg>