<svg width="1012" height="214" viewBox="0 0 1012 214" fill="none" xmlns="http://www.w3.org/2000/svg"><g filter="url(#filter0_d)"><path d="M-10.8688 183.354-11.7825 182.948C-11.8394 183.076-11.8688 183.214-11.8688 183.354h1zM54.1573 126.342 54.1278 127.342C54.1377 127.342 54.1475 127.342 54.1574 127.342L54.1573 126.342zM77.9743 129.603 77.9117 128.605 77.9743 129.603zM128.856 64.3705 128.853 65.3705H128.856v-1zM145.095 94.8126 144.123 95.0462C144.127 95.0658 144.133 95.0852 144.138 95.1044L145.095 94.8126zM199.224 161.132 199.287 160.134C199.255 160.132 199.224 160.132 199.192 160.133L199.224 161.132zM230.619 137.214 229.766 136.693C229.76 136.703 229.754 136.713 229.748 136.723L230.619 137.214zM295.575 71.9808 295.616 70.9816C295.602 70.981 295.588 70.9808 295.575 70.9808v1zM388.364 79.8543 387.788 79.0369 388.364 79.8543zM448.094 79.8543 448.76 79.1082 448.094 79.8543zM633.819 79.8543 634.034 78.8776 633.819 79.8543zM584.376 74.7228 583.924 75.6146 584.376 74.7228zM678.431 94.8126 678.552 95.8052 678.431 94.8126zM768.193 123.347 768.076 124.34 768.193 123.347zM841.095 113.084 841.065 112.085 841.095 113.084zM906.322 168.885 906.237 167.888 906.322 168.885zM938.936 150.285 938.14 149.68 938.936 150.285zM819.352 137.457 818.687 136.71 819.352 137.457zM859.64 137.457 858.896 138.125 859.64 137.457zM1056.71 200.33 1057.21 201.198C1057.23 201.189 1057.24 201.18 1057.26 201.17L1056.71 200.33zM1100.09 154.774 1100.62 153.93 1100.09 154.774zM1023.35 219.444v1C1023.52 220.444 1023.69 220.399 1023.85 220.312L1023.35 219.444zm-1034.2188.0h-1c0 .5530000000000257.4477000000000011 1 1 1v-1zM-9.95518 183.761C-6.21238 175.348 2.61876 160.973 14.1684 148.824 25.7542 136.636 39.8533 126.92 54.1278 127.342L54.1869 125.343C39.0149 124.895 24.3901 135.168 12.7189 147.446 1.01156 159.761-7.94717 174.327-11.7825 182.948L-9.95518 183.761zM54.1574 127.342C57.0905 127.342 60.8832 128.248 65.132 129.142 69.3033 130.019 73.8469 130.865 78.0369 130.602L77.9117 128.605C74.0258 128.849 69.7283 128.064 65.5437 127.184 61.4366 126.321 57.3588 125.342 54.1573 125.342L54.1574 127.342zM78.0369 130.602C84.3712 130.204 98.3354 122.743 107.067 97.3117L105.176 96.6622C96.5864 121.678 83.1251 128.278 77.9117 128.605L78.0369 130.602zM107.067 97.3117C111.38 84.7522 115.614 76.7094 119.417 71.8285 123.237 66.925 126.497 65.3637 128.853 65.3705L128.859 63.3705C125.593 63.3611 121.815 65.4962 117.839 70.5993 113.846 75.7248 109.524 83.9983 105.176 96.6622L107.067 97.3117zM128.856 65.3705C130.015 65.3705 132.297 66.3119 135.119 70.6757 137.915 74.9987 141.104 82.4863 144.123 95.0462L146.067 94.5789C143.023 81.915 139.768 74.1816 136.798 69.5895 133.855 65.0382 131.048 63.3705 128.856 63.3705V65.3705zM144.138 95.1044C147.586 106.404 154.443 123.298 163.832 137.282 168.527 144.275 173.883 150.581 179.798 155.092 185.717 159.606 192.248 162.359 199.257 162.132L199.192 160.133C192.777 160.341 186.686 157.83 181.011 153.501 175.331 149.17 170.117 143.055 165.493 136.167 156.243 122.391 149.46 105.69 146.051 94.5207L144.138 95.1044zm55.024 67.0266C205.4 162.522 220.088 157.965 231.491 137.704L229.748 136.723C218.633 156.472 204.596 160.468 199.287 160.134L199.162 162.131zM231.473 137.735C238.311 126.531 249.373 110.275 261.275 96.8342 267.227 90.1122 273.364 84.1229 279.265 79.8218 285.192 75.5023 290.752 72.9808 295.575 72.9808v-2C290.113 70.9808 284.125 73.8047 278.087 78.2055 272.024 82.6248 265.779 88.7308 259.777 95.5084 247.772 109.066 236.641 125.427 229.766 136.693L231.473 137.735zM295.534 72.9799C296.516 73.0201 298.228 73.4584 300.654 74.2384 303.042 75.0063 305.994 76.0605 309.405 77.2608 316.209 79.6557 324.772 82.6083 333.992 84.8922 352.351 89.4407 373.672 91.433 388.94 80.6716L387.788 79.0369C373.303 89.2461 352.788 87.4884 334.472 82.9509 325.354 80.6918 316.868 77.7674 310.069 75.3743 306.677 74.1807 303.688 73.1131 301.266 72.3344 298.882 71.5679 296.914 71.0347 295.616 70.9816L295.534 72.9799zM388.94 80.6716C394.359 76.8526 397.807 70.0907 400.276 62.3306 402.754 54.5473 404.306 45.5581 405.799 37.1119 407.301 28.6156 408.738 20.7069 410.969 14.9133 413.221 9.06811 416.085 5.85811 420.193 5.84356L420.186 3.84357C414.725 3.86291 411.399 8.23401 409.103 14.1944 406.787 20.2065 405.321 28.328 403.829 36.7637 402.329 45.2495 400.799 54.0942 398.371 61.724 395.935 69.3769 392.654 75.6072 387.788 79.0369L388.94 80.6716zM420.193 5.84356C424.297 5.82902 427.041 8.89437 429.076 14.5481 431.099 20.1662 432.24 27.8815 433.378 36.2553 434.508 44.5783 435.631 53.5115 437.638 61.393 439.639 69.2521 442.564 76.2588 447.428 80.6003L448.76 79.1082C444.358 75.1794 441.554 68.6661 439.576 60.8994 437.604 53.1552 436.497 44.3567 435.36 35.9861 434.23 27.6664 433.066 19.7262 430.958 13.8706 428.863 8.05068 425.651 3.82421 420.186 3.84357L420.193 5.84356zM447.428 80.6003C460.41 92.1869 480.659 92.9443 498.499 89.8877 507.457 88.353 515.891 85.8433 522.642 83.1827 529.346 80.5405 534.521 77.6981 536.847 75.4404L535.454 74.0052C533.434 75.9657 528.585 78.6904 521.908 81.3221 515.278 83.9353 506.976 86.4062 498.161 87.9164 480.457 90.9498 461.025 90.0547 448.76 79.1082L447.428 80.6003zM536.847 75.4404C541.289 71.1291 544.909 65.0004 548.214 60.1607 549.892 57.7036 551.482 55.582 553.08 54.078 554.68 52.5707 556.168 51.798 557.646 51.798v-2C555.431 49.798 553.472 50.9614 551.709 52.6218 549.942 54.2855 548.249 56.5632 546.563 59.0328 543.139 64.0465 539.704 69.8802 535.454 74.0052L536.847 75.4404zM557.646 51.798C559.095 51.798 560.667 52.6695 562.5 54.3773 564.314 56.0673 566.207 58.402 568.321 61.0143 572.489 66.1662 577.456 72.3337 583.924 75.6146L584.828 73.831C578.811 70.7783 574.105 64.9833 569.875 59.7563 567.79 57.179 565.802 54.7201 563.863 52.9138 561.943 51.1254 559.888 49.798 557.646 49.798v2zM583.924 75.6146C592.813 80.1245 600.64 80.3584 608.526 80.0188 616.425 79.6787 624.285 78.781 633.604 80.8309L634.034 78.8776C624.392 76.7566 616.191 77.6869 608.44 78.0207 600.675 78.355 593.261 78.1088 584.828 73.831L583.924 75.6146zM633.604 80.8309C642.403 82.7665 648.829 86.96 655.546 90.5304 662.243 94.0897 669.132 96.9538 678.552 95.8052L678.31 93.8199C669.495 94.8947 663.049 92.2532 656.485 88.7643 649.941 85.2865 643.178 80.8892 634.034 78.8776L633.604 80.8309zM678.552 95.8052C685.091 95.0079 690.108 91.7227 694.243 87.3365 698.358 82.9713 701.644 77.4665 704.718 72.165 707.82 66.816 710.692 61.7038 714.024 57.9066 717.332 54.1367 720.977 51.798 725.6 51.798v-2C720.185 49.798 716.037 52.5804 712.521 56.5875 709.029 60.5672 706.047 65.8876 702.988 71.1617 699.902 76.4832 696.721 81.7916 692.787 85.9646 688.873 90.1167 684.259 93.0946 678.31 93.8199L678.552 95.8052zM725.6 51.798C727.775 51.798 729.455 52.6975 730.855 54.3708 732.289 56.0846 733.42 58.6057 734.375 61.783 736.293 68.1648 737.371 76.6725 739.062 85.5564 740.737 94.3537 743.005 103.433 747.326 110.611 751.678 117.84 758.128 123.162 768.076 124.34L768.311 122.353C759.083 121.261 753.132 116.378 749.039 109.579 744.916 102.729 742.697 93.9545 741.027 85.1823 739.373 76.4966 738.248 67.7187 736.29 61.2072 735.307 57.9379 734.081 55.1104 732.389 53.0873 730.662 51.0237 728.445 49.798 725.6 49.798v2zM906.408 169.881C913.822 169.242 919.905 167.481 925.276 164.361 930.642 161.243 935.24 156.803 939.733 150.89L938.14 149.68C933.753 155.455 929.343 159.685 924.271 162.631 919.205 165.574 913.42 167.269 906.237 167.888L906.408 169.881zM768.076 124.34C772.214 124.83 776.251 126.919 780.35 129.638 782.394 130.993 784.424 132.485 786.476 133.988 788.521 135.486 790.586 136.996 792.669 138.358 796.819 141.074 801.15 143.285 805.722 143.675 810.355 144.07 815.095 142.585 820.017 138.204L818.687 136.71C814.111 140.784 809.896 142.023 805.892 141.682 801.828 141.336 797.839 139.351 793.764 136.684 791.733 135.356 789.708 133.877 787.658 132.375 785.615 130.878 783.546 129.357 781.456 127.971 777.289 125.207 772.929 122.9 768.311 122.353L768.076 124.34zM820.017 138.204C822.544 135.954 824.367 133.275 825.879 130.567 826.635 129.214 827.317 127.843 827.969 126.513 828.625 125.175 829.245 123.887 829.891 122.66 831.185 120.202 832.526 118.11 834.269 116.604 835.981 115.125 838.127 114.173 841.124 114.084L841.065 112.085C837.617 112.188 835.028 113.305 832.961 115.09 830.926 116.848 829.445 119.215 828.121 121.728 827.458 122.988 826.82 124.314 826.173 125.633 825.523 126.959 824.86 128.289 824.133 129.592 822.678 132.199 820.983 134.666 818.687 136.71L820.017 138.204zM841.124 114.084C844.22 113.992 846.212 114.791 847.653 116.086 849.136 117.417 850.144 119.364 851.072 121.787 851.533 122.992 851.961 124.277 852.423 125.635 852.882 126.984 853.371 128.395 853.943 129.812 855.088 132.648 856.579 135.543 858.896 138.125L860.384 136.789C858.281 134.445 856.895 131.783 855.798 129.063 855.248 127.703 854.775 126.337 854.317 124.991 853.862 123.653 853.418 122.322 852.939 121.072 851.987 118.583 850.841 116.26 848.989 114.597 847.097 112.898 844.573 111.98 841.065 112.085L841.124 114.084zM858.896 138.125C863.361 143.101 867.114 147.637 870.643 151.692 874.154 155.726 877.423 159.26 880.839 162.115 887.733 167.879 895.194 170.848 906.408 169.881L906.237 167.888C895.575 168.808 888.631 166.023 882.121 160.58 878.834 157.832 875.651 154.4 872.152 150.379 868.671 146.38 864.855 141.772 860.384 136.789L858.896 138.125zM939.733 150.89C944.874 144.121 951.489 134.107 958.808 122.932 966.135 111.743 974.18 99.3705 982.203 87.8399 990.23 76.3041 998.212 65.6477 1005.41 57.8836 1009.01 54.0005 1012.38 50.8699 1015.44 48.7169 1018.53 46.5483 1021.18 45.4564 1023.35 45.4564v-2C1020.56 43.4564 1017.5 44.8298 1014.29 47.0807 1011.07 49.3473 1007.59 52.5904 1003.94 56.5242 996.647 64.3938 988.601 75.1436 980.561 86.6976 972.518 98.2568 964.455 110.658 957.134 121.837 949.804 133.03 943.23 142.979 938.14 149.68L939.733 150.89zM1023.35 45.4564C1024.14 45.4564 1025.13 45.7716 1026.35 46.4951 1027.55 47.2126 1028.9 48.2878 1030.38 49.6979 1033.34 52.5178 1036.71 56.5829 1040.35 61.5245 1047.62 71.4013 1055.87 84.6471 1063.89 98.095 1067.9 104.815 1071.84 111.579 1075.57 117.99 1079.3 124.399 1082.82 130.458 1085.97 135.761 1089.12 141.062 1091.91 145.623 1094.19 149.033 1095.32 150.737 1096.34 152.168 1097.22 153.266 1098.07 154.334 1098.86 155.182 1099.55 155.619L1100.62 153.93C1100.24 153.689 1099.63 153.082 1098.78 152.018 1097.96 150.984 1096.97 149.606 1095.85 147.923 1093.61 144.559 1090.84 140.036 1087.69 134.74 1084.54 129.447 1081.03 123.397 1077.3 116.984 1073.57 110.573 1069.62 103.801 1065.61 97.0708 1057.59 83.6167 1049.29 70.2992 1041.96 60.3383 1038.29 55.361 1034.84 51.1886 1031.76 48.2507 1030.22 46.7819 1028.75 45.5981 1027.37 44.7765 1026 43.9607 1024.64 43.4564 1023.35 43.4564v2zM1099.55 155.619C1100.26 156.069 1100.69 156.576 1100.93 157.112 1101.16 157.651 1101.24 158.295 1101.14 159.069 1100.91 160.654 1099.92 162.641 1098.24 164.938 1094.89 169.506 1089.12 174.866 1082.86 180.013 1076.62 185.146 1069.94 190.016 1064.83 193.606 1062.27 195.4 1060.1 196.873 1058.58 197.896 1057.81 198.408 1057.21 198.807 1056.8 199.078 1056.59 199.214 1056.43 199.318 1056.33 199.387 1056.28 199.422 1056.23 199.448 1056.21 199.465 1056.19 199.474 1056.18 199.481 1056.18 199.485 1056.17 199.487 1056.17 199.489 1056.17 199.49 1056.17 199.49 1056.17 199.491 1056.17 199.491c0 0 0 0 .5399999999999636.8389999999999986C1057.26 201.17 1057.26 201.169 1057.26 201.169 1057.26 201.169 1057.26 201.168 1057.26 201.168 1057.26 201.166 1057.26 201.165 1057.27 201.162 1057.27 201.158 1057.28 201.151 1057.3 201.142 1057.33 201.124 1057.37 201.097 1057.42 201.061 1057.53 200.991 1057.69 200.886 1057.9 200.749 1058.31 200.475 1058.92 200.072 1059.69 199.557 1061.23 198.527 1063.4 197.047 1065.98 195.243 1071.11 191.638 1077.83 186.736 1084.13 181.558 1090.41 176.394 1096.34 170.903 1099.85 166.121 1101.6 163.744 1102.83 161.43 1103.12 159.346 1103.27 158.284 1103.17 157.251 1102.75 156.302 1102.33 155.35 1101.61 154.557 1100.62 153.93L1099.55 155.619zM1056.22 199.463 1022.85 218.577 1023.85 220.312 1057.21 201.198 1056.22 199.463zM1023.35 218.444H281.717v2H1023.35v-2zm-741.633.0H-10.8688v2H281.717v-2zM-9.86884 219.444V183.354H-11.8688V219.444H-9.86884z" fill="#44aa81"/></g><defs><filter id="filter0_d" x="-16.8688" y=".843506" width="1125.05" height="226.601" filterUnits="userSpaceOnUse" color-interpolation-filters="sRGB"><feFlood flood-opacity="0" result="BackgroundImageFix"/><feColorMatrix in="SourceAlpha" type="matrix" values="0 0 0 0 0 0 0 0 0 0 0 0 0 0 0 0 0 0 127 0"/><feOffset dy="2"/><feGaussianBlur stdDeviation="2.5"/><feColorMatrix type="matrix" values="0 0 0 0 0.266667 0 0 0 0 0.666667 0 0 0 0 0.505882 0 0 0 0.15 0"/><feBlend mode="normal" in2="BackgroundImageFix" result="effect1_dropShadow"/><feBlend mode="normal" in="SourceGraphic" in2="effect1_dropShadow" result="shape"/></filter></defs></svg>