<svg width="102" height="90" viewBox="0 0 102 90" fill="none" xmlns="http://www.w3.org/2000/svg"><path d="M0 0h44.2591v44.2671H0z" transform="matrix(0.638461 -0.769654 0.770259 0.637731 0 34.0642)" fill="#ffb200"/><path d="M58.4517 31.7157C58.4517 31.7157 55.5791 34.4535 56.2097 35.153 56.8404 35.8525 61.6049 35.153 61.6049 35.153 61.6049 35.153 61.8843 36.4131 63.8469 36.3436 65.8095 36.2741 69.8031 36.3436 69.8031 36.3436" fill="#ccf8fe"/><path fill-rule="evenodd" clip-rule="evenodd" d="M36.8862 32.4118 48.1866 43.1686C48.1866 43.1686 51.3397 59.614 53.9678 62.8915 56.5958 66.169 69.9434 76.1394 69.9434 76.1394L82.4505 89.9999 102 80.1465 92.5406 68.8906C92.5406 68.8906 94.6875 48.5828 93.3207 44.7425 92.3261 41.9479 80.6026 31.7216 73.1197 24.7334 70.1655 21.9766 66.1278 20.6917 62.1219 21.2335L40.5019 24.1532C40.1048 24.2071 39.7799 24.4958 39.6802 24.8836 39.5804 25.2713 39.7256 25.6808 40.0475 25.9193L42.4066 27.6635 61.5342 27.8025 73.2588 47.9377 61.8147 47.7536c0 0-12.128-21.4729-24.1019-18.502299999999998C37.0533 29.418 36.5368 29.93 36.3648 30.5876 36.1928 31.2452 36.3926 31.9441 36.8862 32.4118z" fill="#f7ebeb"/><path d="M81.9774 41.949C81.9774 41.949 70.2111 24.6558 67.8729 22.629 66.1247 21.113 63.8468 21.113 63.8468 21.113" stroke="#000" stroke-width=".55"/><path d="M87.9337 40.6658C87.9337 40.6658 76.1325 28.3966 71.5813 23.9702 69.4947 21.94 67.6155 21.6273 67.6155 21.6273" stroke="#000" stroke-width=".55"/><path fill-rule="evenodd" clip-rule="evenodd" d="M92.2159 36.0126 37.4345 33.5805 30.4477 29.4205 38.0442 26.8575 92.515 29.278C93.4103 29.3162 94.2536 29.7088 94.8587 30.3691 95.4638 31.0295 95.7809 31.9033 95.74 32.7976 95.7006 33.6912 95.3069 34.5325 94.6457 35.1357 93.9846 35.7388 93.1103 36.0544 92.2159 36.0126z" fill="#000"/><path d="M51.0395 34.2959 38.1463 33.7238 36.8862 32.5251C36.3935 32.0567 36.1945 31.3578 36.3666 30.7004 36.5387 30.043 37.0547 29.5309 37.7139 29.3634 42.3729 28.2076 47.0517 30.7544 51.0395 34.2959z" fill="#fff"/><path fill-rule="evenodd" clip-rule="evenodd" d="M92.4884 34.1839C93.3687 34.1839 94.0823 33.4709 94.0823 32.5915 94.0823 31.712 93.3687 30.999 92.4884 30.999 91.6081 30.999 90.8944 31.712 90.8944 32.5915 90.8944 33.4709 91.6081 34.1839 92.4884 34.1839z" fill="#fff"/><path opacity=".2" fill-rule="evenodd" clip-rule="evenodd" d="M40.9158 24.0928C40.9158 24.0928 43.7849 26.9453 45.5307 23.4697L40.9158 24.0928z" fill="#000"/><path opacity=".2" fill-rule="evenodd" clip-rule="evenodd" d="M37.8935 33.3675C37.8935 33.3675 37.4298 31.2527 40.4126 31.5758 43.3953 31.8989 43.8103 34.2789 42.7311 35.0838 42.0512 35.5681 41.2233 35.7999 40.3905 35.7393" fill="#000"/><path d="M14.1685 37.2147C14.1685 37.2147 16.691 17.933 20.404 17.4431 24.1171 16.9532 24.4684 34.4537 26.0844 34.6286 27.7004 34.8035 30.4478 29.4205 30.4478 29.4205" stroke="#000" stroke-width="3.0096"/></svg>