<svg xmlns="http://www.w3.org/2000/svg" fill="none" viewBox="0 0 19 17"><path fill="#8A8CA4" d="M8.935 15.688l-5.618-5.516C3.075 9.947.982 7.939.982 5.44.982 2.348 2.918.3 6.164.3c1.411 0 2.747.777 3.818 1.697C11.049 1.077 12.389.299 13.8.299c3.126 0 5.182 1.926 5.182 5.141 0 1.773-1.084 3.529-2.322 4.729l-.013.013-5.618 5.506a1.49 1.49 0 0 1-2.094 0zm-4.48-6.692l5.527 5.427 5.516-5.41c.93-.92 1.848-2.26 1.848-3.573 0-2.28-1.303-3.504-3.546-3.504-1.609 0-3.164 1.68-3.818 2.332-.58-.58-2.182-2.332-3.818-2.332-2.247 0-3.546 1.224-3.546 3.504 0 1.272.91 2.69 1.838 3.556z"/></svg>