<svg xmlns="http://www.w3.org/2000/svg" fill="none" viewBox="0 0 108 24"><path fill="#2931FF" d="M10.031 11.62l.024-.48a3.184 3.184 0 0 0-.264-1.151 2.646 2.646 0 0 0-.672-.936 3.079 3.079 0 0 0-.96-.648c-.368-.16-.76-.24-1.176-.24-.4 0-.784.08-1.152.24a2.824 2.824 0 0 0-.936.624c-.272.256-.496.56-.672.912a2.8 2.8 0 0 0-.264 1.104v6.336H.527V.7H3.96v5.256c.32-.432.76-.752 1.32-.96a4.994 4.994 0 0 1 1.704-.312c.896 0 1.736.168 2.52.504.784.336 1.472.8 2.064 1.392a6.33 6.33 0 0 1 1.896 4.56v6.24h-3.432V11.62zm10.897 1.56l3.84-8.16h2.64v2.425l-4.752 9.936-1.224 2.904a6.016 6.016 0 0 1-1.272 1.8 6.677 6.677 0 0 1-1.728 1.224l-1.2-3.264c.272-.16.52-.344.744-.552.224-.208.4-.448.528-.72l.72-1.392-4.752-9.936V5.02h2.64l3.816 8.16zm20.403-2.04c0 .897-.168 1.745-.504 2.545a6.524 6.524 0 0 1-1.392 2.064 6.87 6.87 0 0 1-2.064 1.416 6.329 6.329 0 0 1-2.52.504 5.55 5.55 0 0 1-.864-.072 3.43 3.43 0 0 1-.888-.216 3.14 3.14 0 0 1-.768-.456 1.781 1.781 0 0 1-.504-.72V21.7h-3.432V5.02h3.432v.936c.32-.432.76-.752 1.32-.96a4.994 4.994 0 0 1 1.704-.312c.896 0 1.736.168 2.52.504.784.336 1.472.8 2.064 1.392a6.33 6.33 0 0 1 1.896 4.56zm-6.48-2.975c-.4 0-.784.08-1.152.24a2.824 2.824 0 0 0-.936.624c-.272.256-.496.56-.672.912a2.8 2.8 0 0 0-.264 1.104v.264c.016.4.104.776.264 1.128.176.336.4.64.672.912.272.256.584.464.936.624a3.134 3.134 0 0 0 2.28 0 2.956 2.956 0 0 0 1.608-1.488c.176-.352.28-.72.312-1.104l.024-.192-.024-.192a2.806 2.806 0 0 0-.312-1.08 2.867 2.867 0 0 0-1.608-1.512 2.694 2.694 0 0 0-1.128-.24zm13.92-3.48c.896 0 1.736.168 2.52.504.8.336 1.488.8 2.064 1.392a6.246 6.246 0 0 1 1.392 2.04c.352.784.528 1.624.528 2.52 0 .896-.168 1.744-.504 2.544a6.204 6.204 0 0 1-1.368 2.064 6.782 6.782 0 0 1-2.04 1.392 6.081 6.081 0 0 1-2.52.528 6.503 6.503 0 0 1-2.544-.504 6.734 6.734 0 0 1-2.064-1.368 6.87 6.87 0 0 1-1.416-2.064 6.329 6.329 0 0 1-.504-2.52c0-.896.16-1.736.48-2.52.336-.8.792-1.488 1.368-2.064a6.87 6.87 0 0 1 2.064-1.416 6.247 6.247 0 0 1 2.544-.528zm2.184 8.664c.592-.592.888-1.312.888-2.16 0-.416-.08-.808-.24-1.176a3.166 3.166 0 0 0-.672-.984 3.035 3.035 0 0 0-2.16-.864c-.832 0-1.544.296-2.136.888-.592.624-.888 1.344-.888 2.16 0 .832.304 1.552.912 2.16.592.592 1.312.888 2.16.888a3.581 3.581 0 0 0 1.176-.24c.368-.16.688-.384.96-.672zM71.79 17.38v-6.24c0-.4-.032-.776-.096-1.128a2.551 2.551 0 0 0-.36-.96 1.746 1.746 0 0 0-.672-.648c-.272-.16-.616-.24-1.032-.24-.4 0-.736.08-1.008.24a1.791 1.791 0 0 0-.672.624c-.16.256-.28.56-.36.912-.08.304-.128.632-.144.984v6.456h-3.432v-6.24c0-.4-.032-.776-.096-1.128a2.551 2.551 0 0 0-.36-.96 1.746 1.746 0 0 0-.672-.648c-.272-.16-.616-.24-1.032-.24-.4 0-.736.08-1.008.24a1.791 1.791 0 0 0-.672.624c-.16.256-.28.56-.36.912-.08.336-.128.704-.144 1.104v6.336h-3.432V5.02h3.432v.936c.16-.208.36-.392.6-.552.256-.16.512-.296.768-.408a3.644 3.644 0 0 1 1.368-.312c.256 0 .56.008.912.024s.712.088 1.08.216c.368.112.736.304 1.104.576.368.256.696.624.984 1.104l.024.024c.336-.512.68-.896 1.032-1.152.368-.272.72-.464 1.056-.576.336-.128.64-.192.912-.192.288-.016.512-.024.672-.024.256 0 .56.008.912.024s.712.088 1.08.216c.368.112.736.304 1.104.576.368.256.696.624.984 1.104.288.48.52 1.088.696 1.824.176.736.264 1.64.264 2.712v6.24H71.79zm15.072-4.848h-6.768c.128.272.328.552.6.84.592.592 1.312.888 2.16.888a3.08 3.08 0 0 0 1.776-.6l2.976 1.896a6.33 6.33 0 0 1-2.088 1.56c-.8.368-1.68.552-2.64.552a6.503 6.503 0 0 1-2.544-.504 6.734 6.734 0 0 1-2.064-1.368 6.87 6.87 0 0 1-1.416-2.064 6.329 6.329 0 0 1-.504-2.52c0-.896.168-1.736.504-2.52.336-.8.792-1.496 1.368-2.088a6.246 6.246 0 0 1 2.04-1.392 6.139 6.139 0 0 1 2.544-.528c.896 0 1.736.168 2.52.504.8.336 1.488.8 2.064 1.392a6.246 6.246 0 0 1 1.392 2.04c.352.784.528 1.624.528 2.52 0 .48-.048.944-.144 1.392h-2.304zm-4.056-4.368c-.832 0-1.544.296-2.136.888-.352.384-.6.784-.744 1.2h5.808a2.838 2.838 0 0 0-.768-1.224 3.035 3.035 0 0 0-2.16-.864zm10.225 9.216V8.453h-2.784V5.02h2.784V.7h3.432v4.32h2.88v3.432h-2.88v8.928H93.03zM107.5 8.165c-1.072.016-1.952.304-2.64.864-.672.544-1.032 1.216-1.08 2.016v6.336h-3.432V5.02h3.432v.936c.32-.432.776-.752 1.368-.96.592-.208 1.376-.312 2.352-.312v3.48z"/></svg>