<svg xmlns="http://www.w3.org/2000/svg" fill="none" viewBox="0 0 8 11"><path fill="#84859E" d="M3.679 7.81c.485 0 .752-.266.854-.724.09-.574.294-.868 1.204-1.395.963-.567 1.462-1.271 1.462-2.303 0-1.593-1.305-2.66-3.247-2.66-1.47 0-2.563.582-3 1.484-.137.26-.206.52-.206.813 0 .52.335.855.875.855.417 0 .725-.192.896-.629.219-.608.67-.937 1.34-.937.752 0 1.271.465 1.271 1.135 0 .63-.266.97-1.148 1.497-.807.472-1.224 1.005-1.224 1.812v.096c0 .56.342.957.923.957zm.014 3.042c.622 0 1.12-.471 1.12-1.073 0-.601-.498-1.073-1.12-1.073-.616 0-1.115.472-1.115 1.073 0 .602.5 1.073 1.115 1.073z"/></svg>