<svg width="20" height="20" viewBox="0 0 20 20" fill="none" xmlns="http://www.w3.org/2000/svg"><path d="M20.0003 10.0536c0 5.4932-4.4528 9.9464-9.9455 9.9464C4.5621 20 .109375 15.5468.109375 10.0536.109375 4.56033 4.5621.10717 10.0548.10717 15.5475.10717 20.0003 4.56033 20.0003 10.0536zm-17.90184.0C2.09846 14.4482 5.66065 18.0107 10.0548 18.0107 14.449 18.0107 18.0112 14.4482 18.0112 10.0536 18.0112 5.65898 14.449 2.09645 10.0548 2.09645 5.66065 2.09645 2.09846 5.65898 2.09846 10.0536z" fill="#dbdee8"/><path d="M9.94589.999996C11.7152.999996 13.4448 1.52467 14.916 2.50766 16.3871 3.49066 17.5337 4.88782 18.2108 6.52249 18.8879 8.15715 19.0651 9.95589 18.7199 11.6912 18.3747 13.4266 17.5227 15.0206 16.2716 16.2717 15.0205 17.5228 13.4265 18.3749 11.6911 18.72 9.95581 19.0652 8.1571 18.8881 6.52245 18.211 4.8878 17.5339 3.49064 16.3872 2.50766 14.9161 1.52467 13.4449 1 11.7153 1 9.94596" stroke="#84859e" stroke-width="2" stroke-linecap="round"/></svg>