<svg width="57" height="52" viewBox="0 0 57 52" fill="none" xmlns="http://www.w3.org/2000/svg"><g filter="url(#filter0_i)"><circle cx="25.9999" cy="13.4685" r="9.46845" fill="#d4e9fc"/></g><circle cx="25.9999" cy="13.4685" r="9.46845" stroke="#585eff" stroke-width="1.5"/><g filter="url(#filter1_i)"><path d="M26 26.8384C15.9904 26.8384 7.6983 36.2678 6.23071 45.9032 5.98122 47.5412 7.34315 48.8918 9 48.8918H43C44.6569 48.8918 46.0188 47.5412 45.7693 45.9032 44.3017 36.2678 36.0096 26.8384 26 26.8384z" fill="#d4e9fc"/></g><path d="M6.97215 46.0161C7.68114 41.3613 10.0447 36.738 13.4465 33.2838 16.8465 29.8314 21.239 27.5884 26 27.5884 30.761 27.5884 35.1535 29.8314 38.5535 33.2838 41.9553 36.738 44.3189 41.3613 45.0278 46.0161 45.1967 47.1245 44.2776 48.1418 43 48.1418H9C7.72237 48.1418 6.80334 47.1245 6.97215 46.0161z" stroke="#585eff" stroke-width="1.5" stroke-linecap="round" stroke-linejoin="round"/><path d="M42 38C29.5324 38.5816 23.8401 36.333 11.72 40.9998 10.3361 43.6552 9.87207 44.6014 9.35001 47.3998H11.75 40L42 46.5l1-4L42 38z" fill="#cbe0f2"/><path d="M6.97215 46.1778C7.68114 41.523 10.0447 36.8996 13.4465 33.4454 16.8465 29.993 21.239 27.75 26 27.75 34.2376 27.75 41.3846 34.4931 44.1014 42.4295 44.6314 43.9778 44.2284 45.4149 43.2656 46.4917 42.2896 47.5834 40.7314 48.3034 39 48.3034H9C7.72237 48.3034 6.80334 47.2861 6.97215 46.1778z" stroke="#585eff" stroke-width="1.5" stroke-linecap="round" stroke-linejoin="round"/><g filter="url(#filter2_i)"><circle cx="48" cy="43" r="9" fill="#585eff"/></g><circle cx="48" cy="43" r="8.25" stroke="#585eff" stroke-width="1.5"/><path d="M46.7378 40.79V41.98H45.5478C44.7078 41.98 44.1478 42.54 44.1478 43.24 44.1478 43.94 44.7078 44.5 45.5478 44.5H46.7378V45.69C46.7378 46.53 47.2978 47.09 47.9978 47.09 48.6978 47.09 49.2578 46.53 49.2578 45.69V44.5H50.4478C51.2878 44.5 51.8478 43.94 51.8478 43.24 51.8478 42.54 51.2878 41.98 50.4478 41.98H49.2578V40.79C49.2578 39.95 48.6978 39.39 47.9978 39.39 47.2978 39.39 46.7378 39.95 46.7378 40.79z" fill="#fff"/><defs><filter id="filter0_i" x="15.7815" y="3.25" width="20.4369" height="20.4369" filterUnits="userSpaceOnUse" color-interpolation-filters="sRGB"><feFlood flood-opacity="0" result="BackgroundImageFix"/><feBlend mode="normal" in="SourceGraphic" in2="BackgroundImageFix" result="shape"/><feColorMatrix in="SourceAlpha" type="matrix" values="0 0 0 0 0 0 0 0 0 0 0 0 0 0 0 0 0 0 127 0" result="hardAlpha"/><feOffset dx="3" dy="2.5"/><feComposite in2="hardAlpha" operator="arithmetic" k2="-1" k3="1"/><feColorMatrix type="matrix" values="0 0 0 0 1 0 0 0 0 1 0 0 0 0 1 0 0 0 1 0"/><feBlend mode="normal" in2="shape" result="effect1_innerShadow"/></filter><filter id="filter1_i" x="6.20108" y="26.8384" width="39.5978" height="22.0534" filterUnits="userSpaceOnUse" color-interpolation-filters="sRGB"><feFlood flood-opacity="0" result="BackgroundImageFix"/><feBlend mode="normal" in="SourceGraphic" in2="BackgroundImageFix" result="shape"/><feColorMatrix in="SourceAlpha" type="matrix" values="0 0 0 0 0 0 0 0 0 0 0 0 0 0 0 0 0 0 127 0" result="hardAlpha"/><feOffset dx="3" dy="2.5"/><feComposite in2="hardAlpha" operator="arithmetic" k2="-1" k3="1"/><feColorMatrix type="matrix" values="0 0 0 0 1 0 0 0 0 1 0 0 0 0 1 0 0 0 1 0"/><feBlend mode="normal" in2="shape" result="effect1_innerShadow"/></filter><filter id="filter2_i" x="39" y="34" width="18" height="18" filterUnits="userSpaceOnUse" color-interpolation-filters="sRGB"><feFlood flood-opacity="0" result="BackgroundImageFix"/><feBlend mode="normal" in="SourceGraphic" in2="BackgroundImageFix" result="shape"/><feColorMatrix in="SourceAlpha" type="matrix" values="0 0 0 0 0 0 0 0 0 0 0 0 0 0 0 0 0 0 127 0" result="hardAlpha"/><feOffset dx="3" dy="2.5"/><feComposite in2="hardAlpha" operator="arithmetic" k2="-1" k3="1"/><feColorMatrix type="matrix" values="0 0 0 0 1 0 0 0 0 1 0 0 0 0 1 0 0 0 0.5 0"/><feBlend mode="normal" in2="shape" result="effect1_innerShadow"/></filter></defs></svg>