<svg width="60" height="41" viewBox="0 0 60 41" fill="none" xmlns="http://www.w3.org/2000/svg"><g filter="url(#filter0_i)"><path d="M0 10.5c0-1.65686 1.34315-3 3-3H49C50.6569 7.5 52 8.84315 52 10.5v27C52 39.1569 50.6569 40.5 49 40.5H3C1.34314 40.5.0 39.1569.0 37.5v-27z" fill="#d4e9fc"/></g><path d="M.75 10.5C.75 9.25736 1.75736 8.25 3 8.25H49C50.2426 8.25 51.25 9.25736 51.25 10.5v27C51.25 38.7426 50.2426 39.75 49 39.75H3C1.75736 39.75.75 38.7426.75 37.5v-27z" stroke="#43aa80" stroke-width="1.5"/><path d="M50.5 39.0001V28C31.9035 22.1462 21.1596 21.2905 3.5 28V39.0001H27 50.5z" fill="#cbe0f2"/><path d="M7 4.5H52C53.6569 4.5 55 5.84315 55 7.5V21 33.5" stroke="#43aa80" stroke-width="1.5" stroke-linecap="round"/><path d="M13.5 1h42C57.1569 1 58.5 2.34315 58.5 4V17.5 28" stroke="#43aa80" stroke-width="1.5" stroke-linecap="round"/><path d="M1 16C5.60096 15.0028 6.94513 13.2825 7.5 8.5" stroke="#43aa80" stroke-width="1.5"/><path d="M51 16C46.399 15.0028 45.0549 13.2825 44.5 8.5" stroke="#43aa80" stroke-width="1.5"/><path d="M1 32.5C5.60096 33.4972 6.94513 35.2175 7.5 40" stroke="#43aa80" stroke-width="1.5"/><path d="M51 32.5C46.399 33.4972 45.0549 35.2175 44.5 40" stroke="#43aa80" stroke-width="1.5"/><g filter="url(#filter1_i)"><circle cx="26" cy="24.5" r="8" fill="#43aa80"/></g><circle cx="26" cy="24.5" r="7.25" stroke="#43aa80" stroke-width="1.5"/><defs><filter id="filter0_i" x="0" y="7.5" width="52" height="33" filterUnits="userSpaceOnUse" color-interpolation-filters="sRGB"><feFlood flood-opacity="0" result="BackgroundImageFix"/><feBlend mode="normal" in="SourceGraphic" in2="BackgroundImageFix" result="shape"/><feColorMatrix in="SourceAlpha" type="matrix" values="0 0 0 0 0 0 0 0 0 0 0 0 0 0 0 0 0 0 127 0" result="hardAlpha"/><feOffset dx="3" dy="2.5"/><feComposite in2="hardAlpha" operator="arithmetic" k2="-1" k3="1"/><feColorMatrix type="matrix" values="0 0 0 0 1 0 0 0 0 1 0 0 0 0 1 0 0 0 1 0"/><feBlend mode="normal" in2="shape" result="effect1_innerShadow"/></filter><filter id="filter1_i" x="18" y="16.5" width="16" height="16" filterUnits="userSpaceOnUse" color-interpolation-filters="sRGB"><feFlood flood-opacity="0" result="BackgroundImageFix"/><feBlend mode="normal" in="SourceGraphic" in2="BackgroundImageFix" result="shape"/><feColorMatrix in="SourceAlpha" type="matrix" values="0 0 0 0 0 0 0 0 0 0 0 0 0 0 0 0 0 0 127 0" result="hardAlpha"/><feOffset dx="3" dy="2.5"/><feComposite in2="hardAlpha" operator="arithmetic" k2="-1" k3="1"/><feColorMatrix type="matrix" values="0 0 0 0 1 0 0 0 0 1 0 0 0 0 1 0 0 0 0.5 0"/><feBlend mode="normal" in2="shape" result="effect1_innerShadow"/></filter></defs></svg>