<svg width="20" height="20" viewBox="0 0 20 20" fill="none" xmlns="http://www.w3.org/2000/svg"><g opacity=".5"><path d="M2.5 5H4.16667 17.5" stroke="#25282b" stroke-linecap="round" stroke-linejoin="round"/><path d="M6.66682 5.00008V3.33342C6.66682 2.89139 6.84242 2.46746 7.15498 2.1549 7.46754 1.84234 7.89146 1.66675 8.33349 1.66675H11.6668C12.1089 1.66675 12.5328 1.84234 12.8453 2.1549 13.1579 2.46746 13.3335 2.89139 13.3335 3.33342V5.00008m2.5.0V16.6668C15.8335 17.1088 15.6579 17.5327 15.3453 17.8453 15.0328 18.1578 14.6089 18.3334 14.1668 18.3334H5.83349C5.39146 18.3334 4.96754 18.1578 4.65498 17.8453 4.34242 17.5327 4.16682 17.1088 4.16682 16.6668V5.00008H15.8335z" stroke="#25282b" stroke-linecap="round" stroke-linejoin="round"/><path d="M8.33318 9.16675V14.1667" stroke="#25282b" stroke-linecap="round" stroke-linejoin="round"/><path d="M11.6668 9.16675V14.1667" stroke="#25282b" stroke-linecap="round" stroke-linejoin="round"/></g></svg>