<svg width="21" height="24" viewBox="0 0 21 24" fill="none" xmlns="http://www.w3.org/2000/svg"><path d="M18.3571 10.8096H17.2857V7.59528C17.2857 3.85421 14.2411.80957 10.5.80957 6.75893.80957 3.71429 3.85421 3.71429 7.59528V10.8096H2.64286C1.45982 10.8096.5 11.7694.5 12.9524v8.5715C.5 22.7069 1.45982 23.6667 2.64286 23.6667H18.3571C19.5402 23.6667 20.5 22.7069 20.5 21.5239V12.9524C20.5 11.7694 19.5402 10.8096 18.3571 10.8096zM13.7143 10.8096H7.28571V7.59528C7.28571 5.82296 8.72768 4.381 10.5 4.381 12.2723 4.381 13.7143 5.82296 13.7143 7.59528V10.8096z" fill="#000" fill-opacity=".2"/></svg>