<svg width="18" height="17" viewBox="0 0 18 17" fill="none" xmlns="http://www.w3.org/2000/svg"><path d="M11.8487 6.74087C11.8487 8.20737 11.2045 9.53688 10.1561 10.4833 9.18141 11.3632 7.86122 11.907 6.40083 11.907 3.35878 11.907.952942 9.56157.952942 6.74087c0-2.82069 2.405838-5.16616 5.447888-5.16616C9.44288 1.57471 11.8487 3.92018 11.8487 6.74087z" fill="#1c303e" stroke="#1c303e" stroke-width="1.5"/><path d="M16.2029 10.685C16.2029 13.3568 13.9201 15.6011 11.005 15.6011 8.08995 15.6011 5.80713 13.3568 5.80713 10.685 5.80713 8.01317 8.08995 5.7688 11.005 5.7688 13.9201 5.7688 16.2029 8.01317 16.2029 10.685z" stroke="#1c303e" stroke-width="2"/></svg>