<svg width="20" height="19" viewBox="0 0 20 19" fill="none" xmlns="http://www.w3.org/2000/svg"><path d="M9.01275 17.6872 9.01227 17.6867 2.76984 11.5579 2.76991 11.5578 2.76491 11.5532C2.63827 11.4355 2.00529 10.8306 1.40543 9.91767.804059 9.00242.25 7.79882.25 6.47872.25 4.81348.770472 3.45329 1.70417 2.5102 2.63738 1.56761 4.00818 1.0166 5.75758 1.0166 7.23719 1.0166 8.66494 1.8347 9.837 2.84252L10.0003 2.9829 10.1633 2.84227C11.3311 1.83486 12.7627 1.0166 14.2424 1.0166 15.9277 1.0166 17.2996 1.53494 18.2491 2.46204 19.1977 3.38831 19.75 4.74732 19.75 6.47872 19.75 8.35365 18.5966 10.2438 17.2464 11.553L17.2437 11.5557 17.2303 11.5691 17.2285 11.5709 10.9879 17.6865 10.9873 17.6872C10.7242 17.9468 10.3696 18.0924 10 18.0924 9.63044 18.0924 9.27575 17.9468 9.01275 17.6872zM11.5739 3.40863C10.9235 3.89434 10.3711 4.44754 10.0007 4.82069 9.65683 4.47129 9.11562 3.92587 8.46957 3.43909 7.70413 2.86237 6.74979 2.33478 5.75758 2.33478 4.46563 2.33478 3.41006 2.68722 2.67718 3.40257 1.94331 4.11887 1.56818 5.16468 1.56818 6.47872 1.56818 7.24169 1.83996 8.03107 2.23382 8.74402 2.6282 9.45792 3.15427 10.1122 3.68691 10.61L9.82483 16.6381 9.99989 16.8101 10.1751 16.6383 16.3038 10.6269 16.3046 10.6262C17.3519 9.59034 18.4318 8.04013 18.4318 6.47872 18.4318 5.16451 18.0556 4.11873 17.3213 3.4025 16.5881 2.68726 15.5326 2.33478 14.2424 2.33478 13.2666 2.33478 12.3336 2.84127 11.5739 3.40863z" fill="#919395" stroke="#fff" stroke-width=".5"/></svg>