<svg width="8" height="11" viewBox="0 0 8 11" fill="none" xmlns="http://www.w3.org/2000/svg"><path d="M3.67891 7.81055C4.16426 7.81055 4.43086 7.54395 4.5334 7.08594 4.62227 6.51172 4.82734 6.21777 5.73652 5.69141 6.70039 5.12402 7.19941 4.41992 7.19941 3.3877 7.19941 1.79492 5.89375.728516 3.95234.728516 2.48262.728516 1.38887 1.30957.951367 2.21191.814649 2.47168.746289 2.73145.746289 3.02539.746289 3.54492 1.08125 3.87988 1.62129 3.87988 2.03828 3.87988 2.3459 3.68848 2.5168 3.25098 2.73555 2.64258 3.18672 2.31445 3.85664 2.31445 4.60859 2.31445 5.12813 2.7793 5.12813 3.44922 5.12813 4.07812 4.86152 4.41992 3.97969 4.94629 3.17305 5.41797 2.75605 5.95117 2.75605 6.75781V6.85352C2.75605 7.41406 3.09785 7.81055 3.67891 7.81055zM3.69258 10.8525C4.31465 10.8525 4.81367 10.3809 4.81367 9.7793 4.81367 9.17773 4.31465 8.70605 3.69258 8.70605 3.07734 8.70605 2.57832 9.17773 2.57832 9.7793 2.57832 10.3809 3.07734 10.8525 3.69258 10.8525z" fill="#84859e"/></svg>