<svg width="13" height="12" viewBox="0 0 13 12" fill="none" xmlns="http://www.w3.org/2000/svg"><path d="M8.40767 4.43002C8.40767 5.39846 7.98269 6.27877 7.28568 6.90798 6.63755 7.49307 5.7581 7.85614 4.78269 7.85614 2.74741 7.85614 1.15771 6.28972 1.15771 4.43002 1.15771 2.57033 2.74741 1.00391 4.78269 1.00391 6.81798 1.00391 8.40767 2.57033 8.40767 4.43002z" fill="#949cba" stroke="#949cba" stroke-width="1.5"/><path d="M11.6577 7.21396C11.6577 9.07365 10.068 10.6401 8.03269 10.6401 5.99741 10.6401 4.40771 9.07365 4.40771 7.21396 4.40771 5.35426 5.99741 3.78784 8.03269 3.78784 10.068 3.78784 11.6577 5.35426 11.6577 7.21396z" stroke="#949cba" stroke-width="1.5"/></svg>