<svg width="26" height="24" viewBox="0 0 26 24" fill="none" xmlns="http://www.w3.org/2000/svg"><path d="M19.1417.806685C15.3913.820079 12.3775 3.90975 12.3775 7.66021V10.8079H2.37628C1.19309 10.8079.233154 11.7679.233154 12.951V21.5235C.233154 22.7067 1.19309 23.6666 2.37628 23.6666H18.0925C19.2757 23.6666 20.2356 22.7067 20.2356 21.5235V12.951C20.2356 11.7679 19.2757 10.8079 18.0925 10.8079H15.9494V7.63342C15.9494 5.86534 17.3647 4.39641 19.1328 4.37855 20.9187 4.36069 22.3787 5.81177 22.3787 7.59323V11.1651C22.3787 11.7589 22.8565 12.2367 23.4503 12.2367H24.879C25.4729 12.2367 25.9506 11.7589 25.9506 11.1651V7.59323C25.9506 3.84277 22.8922.79329 19.1417.806685z" fill="#fff"/></svg>