<svg width="20" height="19" viewBox="0 0 20 19" fill="none" xmlns="http://www.w3.org/2000/svg"><path d="M9.01275 17.6872 9.01227 17.6867 2.76984 11.5579 2.76991 11.5578 2.76491 11.5532C2.63827 11.4355 2.00529 10.8306 1.40543 9.91767.804059 9.00242.25 7.79882.25 6.47872.25 4.81348.770472 3.45329 1.70417 2.5102 2.63738 1.56761 4.00818 1.0166 5.75758 1.0166 7.23719 1.0166 8.66494 1.8347 9.837 2.84252L10.0003 2.9829 10.1633 2.84227C11.3311 1.83486 12.7627 1.0166 14.2424 1.0166 15.9277 1.0166 17.2996 1.53494 18.2491 2.46204 19.1977 3.38831 19.75 4.74732 19.75 6.47872 19.75 8.35365 18.5966 10.2438 17.2464 11.553L17.2437 11.5557 17.2303 11.5691 17.2285 11.5709 10.9879 17.6865 10.9873 17.6872C10.7242 17.9468 10.3696 18.0924 10 18.0924 9.63044 18.0924 9.27575 17.9468 9.01275 17.6872z" fill="#da5f4b" stroke="#fff" stroke-width=".5"/></svg>