<svg width="16" height="17" viewBox="0 0 16 17" fill="none" xmlns="http://www.w3.org/2000/svg"><path d="M10.7278 12.9038C9.39193 13.942 7.71081 14.4318 6.0267 14.2734 4.34259 14.1151 2.78213 13.3204 1.66305 12.0513.543968 10.7823-.0495848 9.13414.00324691 7.44256.0560786 5.75099.751322 4.14316 1.94742 2.94646 3.14351 1.74975 4.75051 1.05415 6.44122 1.0013 8.13193.948437 9.77921 1.54229 11.0476 2.66195 12.3161 3.7816 13.1103 5.34286 13.2686 7.02783 13.4269 8.7128 12.9373 10.3948 11.8996 11.7313L15.7549 15.5741C16.0813 15.8994 16.0818 16.4278 15.756 16.7538 15.4302 17.0797 14.9018 17.0794 14.5763 16.7532L10.7361 12.9038H10.7278zM6.65533 12.6377C7.31018 12.6377 7.95863 12.5086 8.56364 12.2579 9.16865 12.0072 9.71837 11.6397 10.1814 11.1764 10.6445 10.7131 11.0118 10.1631 11.2624 9.55775 11.513 8.95243 11.642 8.30366 11.642 7.64846 11.642 6.99327 11.513 6.34449 11.2624 5.73918 11.0118 5.13386 10.6445 4.58385 10.1814 4.12056 9.71837 3.65727 9.16865 3.28976 8.56364 3.03903 7.95863 2.7883 7.31018 2.65925 6.65533 2.65925 5.33278 2.65925 4.0644 3.1849 3.12922 4.12056 2.19404 5.05622 1.66867 6.32524 1.66867 7.64846 1.66867 8.97169 2.19404 10.2407 3.12922 11.1764 4.0644 12.112 5.33278 12.6377 6.65533 12.6377z" fill="#84859e"/></svg>