<svg width="15" height="15" viewBox="0 0 15 15" fill="none" xmlns="http://www.w3.org/2000/svg"><path d="M6.40901 1.47665C6.70756.553661 8.01339.553662 8.31194 1.47665L9.26016 4.40819C9.39413 4.82236 9.78063 5.10229 10.2159 5.10042L13.2415 5.0874C14.2142 5.08321 14.6197 6.32947 13.8308 6.89845L11.3888 8.65968C11.0368 8.91357 10.8887 9.36554 11.0223 9.7785L11.9721 12.7151C12.2706 13.6378 11.2127 14.4026 10.4301 13.8298L7.95106 12.0155C7.5994 11.7581 7.12155 11.7581 6.76988 12.0155L4.29088 13.8298C3.50826 14.4026 2.45035 13.6378 2.74882 12.7151L3.69867 9.7785C3.83225 9.36554 3.68419 8.91357 3.33216 8.65968L.890165 6.89845C.101246 6.32946.50674 5.08321 1.47943 5.0874L4.50502 5.10042C4.94032 5.10229 5.32682 4.82236 5.46079 4.40819L6.40901 1.47665z" fill="#949cba"/></svg>