<svg width="223" height="10" viewBox="0 0 223 10" fill="none" xmlns="http://www.w3.org/2000/svg"><path d="M7.72078 46.0018 5.93504 48.2455C5.55559 48.7222 4.9795 49 4.37017 49H2.76269C1.65812 49 .762695 48.1046.762695 47V5c0-2.76142 2.238575-5 5.000005-5H219.408c2.761000000000024.0 5 2.23858 5 5V45C224.408 47.2091 222.617 49 220.408 49H219.682L217.216 45.9819C216.409 44.9943 214.897 45.004 214.103 46.0018L211.716 49H208.776L206.311 45.9819C205.504 44.9943 203.991 45.004 203.197 46.0018L200.811 49 198.345 45.9819C197.538 44.9943 196.025 45.004 195.231 46.0018L192.845 49H189.905L187.439 45.9819C186.632 44.9943 185.12 45.004 184.325 46.0018L181.939 49H178.999L176.533 45.9819C175.726 44.9943 174.214 45.004 173.42 46.0018L171.033 49H168.093 167.309L164.843 45.9819C164.036 44.9943 162.524 45.004 161.729 46.0018L159.343 49H156.403 155.248L152.782 45.9819C151.975 44.9943 150.462 45.004 149.668 46.0018L147.282 49H144.342 143.557L141.092 45.9819C140.285 44.9943 138.772 45.004 137.978 46.0018L135.592 49H132.652L130.186 45.9819C129.379 44.9943 127.866 45.004 127.072 46.0018L124.686 49H121.746 120.961L118.496 45.9819C117.689 44.9943 116.176 45.004 115.382 46.0018L112.996 49H110.056 108.9L106.434 45.9819C105.627 44.9943 104.115 45.004 103.321 46.0018L100.934 49H97.9944 97.2099L94.7441 45.9819C93.9372 44.9943 92.4246 45.004 91.6304 46.0018L89.2442 49H86.3042 85.1485L82.6827 45.9819C81.8758 44.9943 80.3632 45.004 79.569 46.0018L77.1827 49H74.2427 73.4583L70.9925 45.9819C70.1856 44.9943 68.673 45.004 67.8788 46.0018L65.4925 49H64.9146 62.5525 60.9352L58.4694 45.9819C57.6625 44.9943 56.1499 45.004 55.3557 46.0018L52.9695 49H50.0295 49.245L46.7792 45.9819C45.9723 44.9943 44.4597 45.004 43.6655 46.0018L41.2793 49H38.3393 37.1836L34.7178 45.9819C33.9109 44.9943 32.3983 45.004 31.6041 46.0018L29.2178 49H26.2778 25.4934L23.0276 45.9819C22.2207 44.9943 20.7081 45.004 19.9139 46.0018L17.5276 49H16.2818 14.5876 13.3003L10.8345 45.9819C10.0276 44.9943 8.51495 45.004 7.72078 46.0018z" fill="#fff"/></svg>