<svg width="19" height="22" viewBox="0 0 19 22" fill="none" xmlns="http://www.w3.org/2000/svg"><g filter="url(#filter0_i)"><circle cx="9.15189" cy="5.33286" r="4.33274" fill="#f5aa27"/></g><circle cx="9.15189" cy="5.33286" r="4.33274" stroke="#f5aa27" stroke-width="2"/><g filter="url(#filter1_i)"><path d="M9.15195 11.9087C4.7854 11.9087 1.13308 15.8302.219787 20.0163-.015659 21.0955.89543 22.0003 2 22.0003H16.3039C17.4085 22.0003 18.3196 21.0955 18.0841 20.0163 17.1708 15.8302 13.5185 11.9087 9.15195 11.9087z" fill="#f5aa27"/></g><path d="M1.1968 20.2295C2.04244 16.3535 5.39297 12.9087 9.15195 12.9087 12.9109 12.9087 16.2615 16.3535 17.1071 20.2295 17.1491 20.4221 17.0968 20.5897 16.9648 20.7313 16.8227 20.8839 16.5863 21.0003 16.3039 21.0003H2C1.71761 21.0003 1.48119 20.8839 1.33905 20.7313 1.20706 20.5897 1.15478 20.4221 1.1968 20.2295z" stroke="#f5aa27" stroke-width="2" stroke-linecap="round" stroke-linejoin="round"/><defs><filter id="filter0_i" x="3.81915" y="12207e-8" width="10.6655" height="10.6655" filterUnits="userSpaceOnUse" color-interpolation-filters="sRGB"><feFlood flood-opacity="0" result="BackgroundImageFix"/><feBlend mode="normal" in="SourceGraphic" in2="BackgroundImageFix" result="shape"/><feColorMatrix in="SourceAlpha" type="matrix" values="0 0 0 0 0 0 0 0 0 0 0 0 0 0 0 0 0 0 127 0" result="hardAlpha"/><feOffset dx="2" dy="3"/><feComposite in2="hardAlpha" operator="arithmetic" k2="-1" k3="1"/><feColorMatrix type="matrix" values="0 0 0 0 1 0 0 0 0 1 0 0 0 0 1 0 0 0 0.5 0"/><feBlend mode="normal" in2="shape" result="effect1_innerShadow"/></filter><filter id="filter1_i" x=".182434" y="11.9087" width="17.9391" height="10.0916" filterUnits="userSpaceOnUse" color-interpolation-filters="sRGB"><feFlood flood-opacity="0" result="BackgroundImageFix"/><feBlend mode="normal" in="SourceGraphic" in2="BackgroundImageFix" result="shape"/><feColorMatrix in="SourceAlpha" type="matrix" values="0 0 0 0 0 0 0 0 0 0 0 0 0 0 0 0 0 0 127 0" result="hardAlpha"/><feOffset dx="2" dy="3"/><feComposite in2="hardAlpha" operator="arithmetic" k2="-1" k3="1"/><feColorMatrix type="matrix" values="0 0 0 0 1 0 0 0 0 1 0 0 0 0 1 0 0 0 0.5 0"/><feBlend mode="normal" in2="shape" result="effect1_innerShadow"/></filter></defs></svg>